# .PCD v0.7 - Point Cloud Data file format
VERSION 0.7
FIELDS x y z
SIZE 4 4 4
TYPE F F F
COUNT 1 1 1
WIDTH 502
HEIGHT 1
VIEWPOINT 0 0 0 1 0 0 0
POINTS 502
DATA ascii
1.249936 -0.012660 0.000000
1.250716 -0.026642 0.000000
1.250341 -0.040611 0.000000
1.249809 -0.054574 0.000000
1.251119 -0.068641 0.000000
1.252955 -0.087402 0.000000
1.253769 -0.103085 0.000000
1.253391 -0.118708 0.000000
1.253813 -0.134443 0.000000
1.255029 -0.150326 0.000000
1.256044 -0.166260 0.000000
1.254877 -0.181955 0.000000
1.254501 -0.197802 0.000000
1.258855 -0.214509 0.000000
1.268887 -0.232433 0.000000
1.856668 -0.363937 0.000000
1.843316 -0.408325 0.000000
1.850057 -0.386507 0.000000
1.838711 -0.432969 0.000000
1.790115 -0.446667 0.000000
1.625453 -0.428561 0.000000
1.628297 -0.452494 0.000000
1.631750 -0.476857 0.000000
1.632930 -0.500804 0.000000
1.633760 -0.524866 0.000000
1.637082 -0.549994 0.000000
1.650402 -0.578942 0.000000
1.662300 -0.607996 0.000000
0.000000 -0.000000 0.000000
0.000000 -0.000000 0.000000
0.000000 -0.000000 0.000000
0.000000 -0.000000 0.000000
2.443688 -1.075773 0.000000
2.450194 -1.115084 0.000000
2.454288 -1.153869 0.000000
2.456894 -1.192489 0.000000
2.454447 -1.229111 0.000000
2.447914 -1.264019 0.000000
2.443539 -1.300362 0.000000
2.417592 -1.325254 0.000000
2.284040 -1.329891 0.000000
2.355699 -1.329551 0.000000
2.229639 -1.335482 0.000000
2.172900 -1.338361 0.000000
2.111370 -1.336831 0.000000
2.056086 -1.337804 0.000000
1.999445 -1.336505 0.000000
1.946455 -1.336276 0.000000
1.900323 -1.339551 0.000000
1.851172 -1.339547 0.000000
1.801516 -1.337937 0.000000
1.756961 -1.338944 0.000000
1.715025 -1.340902 0.000000
1.672922 -1.344116 0.000000
1.632986 -1.345664 0.000000
1.594800 -1.347723 0.000000
1.559839 -1.351665 0.000000
1.525029 -1.354949 0.000000
1.491858 -1.358927 0.000000
1.458094 -1.361612 0.000000
1.426662 -1.365745 0.000000
1.395355 -1.369310 0.000000
1.070194 -1.076573 0.000000
1.043544 -1.076112 0.000000
1.015600 -1.105241 0.000000
1.028755 -1.087507 0.000000
1.002494 -1.118485 0.000000
1.158363 -1.325065 0.000000
1.145747 -1.343882 0.000000
1.129006 -1.357977 0.000000
1.104536 -1.362541 0.000000
1.077026 -1.362786 0.000000
1.049681 -1.362560 0.000000
1.020708 -1.359469 0.000000
0.991974 -1.355871 0.000000
0.966391 -1.355844 0.000000
0.943243 -1.358679 0.000000
0.898290 -1.331281 0.000000
0.879364 -1.336682 0.000000
0.859355 -1.340140 0.000000
0.837266 -1.339920 0.000000
0.815821 -1.340223 0.000000
0.794484 -1.340208 0.000000
0.772261 -1.338147 0.000000
0.582723 -1.037562 0.000000
0.570071 -1.043427 0.000000
0.557831 -1.050022 0.000000
0.548267 -1.061804 0.000000
0.538952 -1.074400 0.000000
0.528067 -1.090912 0.000000
0.524696 -1.119102 0.000000
0.478968 -1.055401 0.000000
0.465049 -1.059423 0.000000
0.451885 -1.065105 0.000000
0.445477 -1.087279 0.000000
0.447778 -1.132704 0.000000
0.441897 -1.159659 0.000000
0.429905 -1.171617 0.000000
0.000000 -0.000000 0.000000
0.000000 -0.000000 0.000000
0.000000 -0.000000 0.000000
0.357240 -1.147686 0.000000
0.337569 -1.133815 0.000000
0.320212 -1.126368 0.000000
0.303615 -1.120598 0.000000
0.287710 -1.116527 0.000000
0.273376 -1.118064 0.000000
0.259050 -1.119417 0.000000
0.245799 -1.125472 0.000000
0.233242 -1.135288 0.000000
0.220291 -1.143983 0.000000
0.208222 -1.158435 0.000000
0.184045 -1.199968 0.000000
0.196651 -1.177695 0.000000
0.172645 -1.226913 0.000000
0.184746 -1.442215 0.000000
0.166861 -1.444394 0.000000
0.148950 -1.446351 0.000000
0.131105 -1.449081 0.000000
0.113217 -1.451591 0.000000
0.095352 -1.454879 0.000000
0.077423 -1.457946 0.000000
0.059513 -1.462790 0.000000
0.041467 -1.466414 0.000000
0.003827 -1.463995 0.000000
0.023293 -1.466815 0.000000
-0.015316 -1.461920 0.000000
-0.034451 -1.461594 0.000000
-0.053652 -1.463017 0.000000
-0.072848 -1.463188 0.000000
-0.092057 -1.463107 0.000000
-0.111200 -1.461776 0.000000
-0.130503 -1.462188 0.000000
-0.149835 -1.462344 0.000000
-0.169193 -1.462244 0.000000
-0.188447 -1.460896 0.000000
-0.000000 -0.000000 0.000000
-0.000000 -0.000000 0.000000
-0.000000 -0.000000 0.000000
-0.000000 -0.000000 0.000000
-0.280691 -1.452120 0.000000
-0.298866 -1.449510 0.000000
-0.317232 -1.447649 0.000000
-0.333790 -1.437762 0.000000
-0.349436 -1.424775 0.000000
-0.366815 -1.419367 0.000000
-0.384899 -1.416643 0.000000
-0.404343 -1.418496 0.000000
-0.446217 -1.419519 0.000000
-0.423605 -1.419126 0.000000
-0.465954 -1.420532 0.000000
-0.485785 -1.421273 0.000000
-0.505705 -1.421740 0.000000
-0.525711 -1.421930 0.000000
-0.546158 -1.422775 0.000000
-0.566705 -1.423330 0.000000
-0.586969 -1.422670 0.000000
-0.607696 -1.422644 0.000000
-0.629319 -1.424151 0.000000
-0.651073 -1.425340 0.000000
-0.673379 -1.427110 0.000000
-0.697325 -1.427816 0.000000
-0.719116 -1.430410 0.000000
-0.741058 -1.432691 0.000000
-0.763147 -1.434654 0.000000
-0.785859 -1.437174 0.000000
-0.808729 -1.439360 0.000000
-0.832253 -1.442075 0.000000
-0.855437 -1.443576 0.000000
-0.878764 -1.444734 0.000000
-0.903290 -1.447240 0.000000
-0.927450 -1.448529 0.000000
-0.952856 -1.451124 0.000000
-0.980471 -1.451957 0.000000
-1.008076 -1.453666 0.000000
-1.037611 -1.457355 0.000000
-0.444304 -0.607950 0.000000
-0.447003 -0.595998 0.000000
-0.451305 -0.586450 0.000000
-0.457917 -0.580028 0.000000
-0.465070 -0.574309 0.000000
-0.477262 -0.574657 0.000000
-0.488885 -0.574028 0.000000
-0.501880 -0.574704 0.000000
-0.514300 -0.574401 0.000000
-0.529319 -0.575626 0.000000
-0.547792 -0.580283 0.000000
-0.569259 -0.587425 0.000000
-0.586773 -0.589849 0.000000
-0.602302 -0.589814 0.000000
-0.618654 -0.590163 0.000000
-0.633652 -0.588821 0.000000
-0.647236 -0.585845 0.000000
-0.554334 -0.488708 0.000000
-0.550061 -0.472290 0.000000
-0.549292 -0.459276 0.000000
-0.549828 -0.447627 0.000000
-0.551471 -0.435992 0.000000
-0.552227 -0.425270 0.000000
-0.552801 -0.414599 0.000000
-0.554000 -0.404574 0.000000
-0.554219 -0.394006 0.000000
-0.555082 -0.384068 0.000000
-0.555783 -0.374173 0.000000
-0.556322 -0.364322 0.000000
-0.556701 -0.354519 0.000000
-0.556922 -0.344765 0.000000
-0.559555 -0.336611 0.000000
-0.560345 -0.327437 0.000000
-0.558549 -0.316524 0.000000
-0.560622 -0.308712 0.000000
-0.558179 -0.298539 0.000000
-0.560010 -0.290775 0.000000
-0.559948 -0.282112 0.000000
-0.560657 -0.273933 0.000000
-0.561251 -0.265779 0.000000
-0.561729 -0.257652 0.000000
-0.562093 -0.249553 0.000000
-0.563262 -0.241878 0.000000
-0.563404 -0.233829 0.000000
-0.564362 -0.226184 0.000000
-0.564779 -0.216910 0.000000
-0.563672 -0.208507 0.000000
-0.564328 -0.200835 0.000000
-0.564881 -0.193180 0.000000
-0.564381 -0.185230 0.000000
-0.564725 -0.177622 0.000000
-0.564968 -0.170034 0.000000
-0.565109 -0.162468 0.000000
-0.565150 -0.154924 0.000000
-0.565091 -0.147404 0.000000
-0.564933 -0.139910 0.000000
-0.564676 -0.132442 0.000000
-0.564430 -0.124510 0.000000
-0.564951 -0.117302 0.000000
-0.565379 -0.110102 0.000000
-0.565716 -0.102908 0.000000
-0.565962 -0.095724 0.000000
-0.567105 -0.088703 0.000000
-0.567171 -0.081527 0.000000
-0.567146 -0.074362 0.000000
-0.568024 -0.067329 0.000000
-0.567820 -0.060180 0.000000
-0.567526 -0.053046 0.000000
-0.568727 -0.038072 0.000000
-0.568140 -0.046009 0.000000
-0.569144 -0.031221 0.000000
-0.569479 -0.024365 0.000000
-0.569731 -0.017505 0.000000
-0.569901 -0.010643 0.000000
-0.569987 -0.003779 0.000000
-0.570992 0.003091 0.000000
-0.570913 0.009967 0.000000
-0.570752 0.016841 0.000000
-0.571507 0.023755 0.000000
-0.572178 0.030689 0.000000
-0.571767 0.037577 0.000000
-0.572151 0.046036 0.000000
-0.571537 0.053122 0.000000
-0.571829 0.060305 0.000000
-0.572031 0.067503 0.000000
-0.572142 0.074716 0.000000
-0.572162 0.081942 0.000000
-0.573079 0.089333 0.000000
-0.573900 0.096760 0.000000
-0.573641 0.104043 0.000000
-0.574271 0.111525 0.000000
-0.574803 0.119038 0.000000
-0.575238 0.126581 0.000000
-0.575526 0.134354 0.000000
-0.576730 0.142194 0.000000
-0.577827 0.150083 0.000000
-0.578817 0.158022 0.000000
-0.579698 0.166008 0.000000
-0.579513 0.173753 0.000000
-0.580178 0.181818 0.000000
-0.579781 0.189615 0.000000
-0.579280 0.197430 0.000000
-0.579616 0.205596 0.000000
-0.579839 0.213801 0.000000
-0.579947 0.222042 0.000000
-0.579899 0.230420 0.000000
-0.579773 0.238730 0.000000
-0.578610 0.246680 0.000000
-0.578254 0.255042 0.000000
-0.577779 0.263432 0.000000
-0.578089 0.272276 0.000000
-0.578268 0.281168 0.000000
-0.578315 0.290105 0.000000
-0.580893 0.300465 0.000000
-0.582420 0.310463 0.000000
-0.582911 0.320062 0.000000
-0.583253 0.329722 0.000000
-0.580319 0.338841 0.000000
-0.582077 0.349611 0.000000
-0.581954 0.359424 0.000000
-0.581677 0.369287 0.000000
-0.581244 0.379199 0.000000
-0.581484 0.389713 0.000000
-0.581553 0.400290 0.000000
-0.581448 0.410929 0.000000
-0.581977 0.422212 0.000000
-0.581513 0.432975 0.000000
-0.581666 0.444397 0.000000
-0.581756 0.468582 0.000000
-0.581624 0.455889 0.000000
-0.581301 0.480213 0.000000
-0.581410 0.492551 0.000000
-0.581301 0.504964 0.000000
-0.580974 0.517449 0.000000
-0.581902 0.531352 0.000000
-0.582573 0.545355 0.000000
-0.583707 0.560149 0.000000
-0.584563 0.575053 0.000000
-0.584434 0.589353 0.000000
-0.586125 0.605893 0.000000
-0.586808 0.621837 0.000000
-0.590959 0.634394 0.000000
-0.592023 0.651083 0.000000
-0.593432 0.668636 0.000000
-0.594503 0.686316 0.000000
-0.595879 0.704881 0.000000
-0.596893 0.723577 0.000000
-0.596914 0.741618 0.000000
-0.597203 0.760550 0.000000
-0.598946 0.781977 0.000000
-0.600857 0.804355 0.000000
-0.602314 0.826890 0.000000
-0.603878 0.876029 0.000000
-0.604471 0.851206 0.000000
-0.602224 0.898916 0.000000
-0.601703 0.924425 0.000000
-0.602214 0.952611 0.000000
-0.602602 0.981822 0.000000
-0.602320 1.011207 0.000000
-0.601362 1.040754 0.000000
-0.603634 1.077428 0.000000
-0.602172 1.109068 0.000000
-0.601373 1.143510 0.000000
-0.602031 1.182577 0.000000
-0.602639 1.223651 0.000000
-0.603342 1.266644 0.000000
-0.605190 1.312162 0.000000
-0.000000 0.000000 0.000000
-0.000000 0.000000 0.000000
-0.000000 0.000000 0.000000
-0.000000 0.000000 0.000000
-0.000000 0.000000 0.000000
-0.000000 0.000000 0.000000
-0.000000 0.000000 0.000000
-0.000000 0.000000 0.000000
-0.000000 0.000000 0.000000
-0.000000 0.000000 0.000000
-0.733537 2.409831 0.000000
-0.702775 2.418981 0.000000
-0.672165 2.428702 0.000000
-0.641931 2.439970 0.000000
-0.613455 2.458623 0.000000
-0.000000 0.000000 0.000000
-0.000000 0.000000 0.000000
-0.000000 0.000000 0.000000
-0.000000 0.000000 0.000000
-0.000000 0.000000 0.000000
-0.558560 3.291950 0.000000
-0.476796 3.312865 0.000000
-0.518120 3.308678 0.000000
-0.434277 3.307612 0.000000
-0.391959 3.301817 0.000000
-0.350170 3.298465 0.000000
-0.308805 3.297572 0.000000
-0.267758 3.299152 0.000000
-0.226718 3.300222 0.000000
-0.185806 3.302778 0.000000
-0.144822 3.303827 0.000000
-0.132861 4.227913 0.000000
-0.080480 4.230235 0.000000
-0.028069 4.232907 0.000000
0.028826 4.233902 0.000000
0.081326 4.235219 0.000000
0.133834 4.234886 0.000000
0.186300 4.232902 0.000000
0.239526 4.244246 0.000000
0.000000 0.000000 0.000000
0.000000 0.000000 0.000000
0.189725 2.022119 0.000000
0.214662 2.018618 0.000000
0.241667 2.032684 0.000000
0.270877 2.060269 0.000000
0.297812 2.066652 0.000000
0.327527 2.070252 0.000000
0.354335 2.072934 0.000000
0.380899 2.073302 0.000000
0.407718 2.074310 0.000000
0.434415 2.073992 0.000000
0.461601 2.075283 0.000000
0.488887 2.076217 0.000000
0.516506 2.077764 0.000000
0.544239 2.078943 0.000000
0.572346 2.080717 0.000000
0.600302 2.081152 0.000000
0.628068 2.080255 0.000000
0.654626 2.082535 0.000000
0.683810 2.084716 0.000000
0.713149 2.086491 0.000000
0.742299 2.086915 0.000000
0.771917 2.087875 0.000000
0.802029 2.089352 0.000000
0.833038 2.092260 0.000000
0.863858 2.093794 0.000000
0.894450 2.093965 0.000000
0.925988 2.095525 0.000000
0.958116 2.097534 0.000000
0.990435 2.099066 0.000000
1.025575 2.099944 0.000000
1.059984 2.102964 0.000000
1.092784 2.101900 0.000000
1.125724 2.100342 0.000000
1.161213 2.102662 0.000000
1.196443 2.103550 0.000000
1.232888 2.105609 0.000000
1.269571 2.107081 0.000000
1.307011 2.108811 0.000000
1.345232 2.110773 0.000000
1.383157 2.111268 0.000000
1.460204 2.108798 0.000000
1.420748 2.110311 0.000000
1.499550 2.109288 0.000000
1.539720 2.109930 0.000000
1.580733 2.110700 0.000000
1.626264 2.116324 0.000000
1.670936 2.119569 0.000000
1.711535 2.116585 0.000000
1.758059 2.119845 0.000000
1.784840 2.098660 0.000000
1.812681 2.078642 0.000000
2.332200 2.608418 0.000000
2.358261 2.572684 0.000000
2.386736 2.538060 0.000000
2.417747 2.507148 0.000000
2.449061 2.476568 0.000000
2.488532 2.454024 0.000000
2.537914 2.440581 0.000000
2.596830 2.435174 0.000000
2.709880 2.477929 0.000000
2.806488 2.502244 0.000000
2.802238 2.435946 0.000000
2.803637 2.375972 0.000000
2.806289 2.318263 0.000000
2.812611 2.264629 0.000000
2.815671 2.209352 0.000000
2.799145 2.140880 0.000000
2.807820 2.092881 0.000000
1.327766 0.964323 0.000000
1.350226 0.955305 0.000000
1.366900 0.941905 0.000000
1.374315 0.922108 0.000000
1.191396 0.778142 0.000000
1.192507 0.757955 0.000000
1.194153 0.738387 0.000000
1.196355 0.719410 0.000000
1.197408 0.699988 0.000000
1.199350 0.678559 0.000000
1.199664 0.659520 0.000000
1.198811 0.640105 0.000000
1.197663 0.620809 0.000000
1.198905 0.602986 0.000000
1.199890 0.585225 0.000000
1.201526 0.567958 0.000000
1.202010 0.550323 0.000000
1.202244 0.532761 0.000000
0.000000 0.000000 0.000000
0.000000 0.000000 0.000000
2.839018 1.089796 0.000000
2.833740 1.133413 0.000000
2.843269 1.047245 0.000000
2.840288 1.002452 0.000000
2.472802 0.835073 0.000000
2.476328 0.798877 0.000000
2.479327 0.762740 0.000000
1.246660 0.365021 0.000000
1.246696 0.346677 0.000000
1.249366 0.329164 0.000000
1.249850 0.311159 0.000000
1.250075 0.293203 0.000000
1.251021 0.275513 0.000000
1.250513 0.258741 0.000000
1.250678 0.242654 0.000000
1.249653 0.226424 0.000000
1.249404 0.210424 0.000000
1.248952 0.194464 0.000000
1.248296 0.178548 0.000000
1.248429 0.162807 0.000000
1.248364 0.147091 0.000000
1.250091 0.131611 0.000000
1.250630 0.116017 0.000000
1.249978 0.100351 0.000000
1.250128 0.084787 0.000000
1.250156 0.067924 0.000000
1.248829 0.054088 0.000000
1.249348 0.040353 0.000000
1.248717 0.026592 0.000000
1.248934 0.012861 0.000000
