# .PCD v0.7 - Point Cloud Data file format
VERSION 0.7
FIELDS x y z
SIZE 4 4 4
TYPE F F F
COUNT 1 1 1
WIDTH 502
HEIGHT 1
VIEWPOINT 0 0 0 1 0 0 0
POINTS 502
DATA ascii
0.854980 -0.005825 0.000000
0.858542 -0.028035 0.000000
0.857842 -0.016476 0.000000
0.857130 -0.038627 0.000000
0.854589 -0.049130 0.000000
0.853915 -0.059716 0.000000
0.854106 -0.070375 0.000000
0.857150 -0.081331 0.000000
0.859059 -0.092267 0.000000
0.860829 -0.103262 0.000000
0.861466 -0.114183 0.000000
0.860974 -0.124994 0.000000
0.861335 -0.135964 0.000000
0.863527 -0.147300 0.000000
0.865459 -0.159314 0.000000
0.866332 -0.170758 0.000000
0.868032 -0.182453 0.000000
0.869575 -0.194218 0.000000
0.869985 -0.205821 0.000000
0.869270 -0.217222 0.000000
0.873241 -0.229910 0.000000
0.885704 -0.245133 0.000000
0.000000 -0.000000 0.000000
1.291628 -0.392680 0.000000
1.278967 -0.406457 0.000000
1.273789 -0.441096 0.000000
1.273759 -0.422496 0.000000
1.274811 -0.459219 0.000000
1.278388 -0.478486 0.000000
1.285411 -0.499360 0.000000
1.290255 -0.519733 0.000000
1.292944 -0.539533 0.000000
1.297176 -0.560271 0.000000
1.302916 -0.582012 0.000000
1.312855 -0.606076 0.000000
1.319686 -0.629183 0.000000
0.000000 -0.000000 0.000000
0.000000 -0.000000 0.000000
1.516814 -0.796017 0.000000
1.506834 -0.814751 0.000000
1.502739 -0.836766 0.000000
2.065730 -1.184027 0.000000
2.083632 -1.228837 0.000000
2.087910 -1.266490 0.000000
2.073753 -1.293324 0.000000
2.053358 -1.316223 0.000000
1.999309 -1.316814 0.000000
1.946395 -1.316832 0.000000
1.902005 -1.321450 0.000000
1.855363 -1.323431 0.000000
1.808033 -1.329118 0.000000
1.766677 -1.332750 0.000000
1.724721 -1.334953 0.000000
1.679852 -1.333837 0.000000
1.639159 -1.334974 0.000000
1.597931 -1.334669 0.000000
1.558485 -1.334852 0.000000
1.519282 -1.334266 0.000000
1.481081 -1.333584 0.000000
1.443869 -1.332842 0.000000
1.409810 -1.334135 0.000000
1.375943 -1.334792 0.000000
1.340656 -1.337863 0.000000
1.309296 -1.337956 0.000000
1.278817 -1.338218 0.000000
1.249882 -1.339410 0.000000
1.223122 -1.342322 0.000000
1.196470 -1.344790 0.000000
1.170589 -1.347571 0.000000
1.144812 -1.349928 0.000000
1.118507 -1.351095 0.000000
1.092337 -1.351830 0.000000
1.066310 -1.352134 0.000000
1.013760 -1.352180 0.000000
1.040430 -1.352014 0.000000
0.988314 -1.352353 0.000000
0.965337 -1.355367 0.000000
0.947567 -1.365416 0.000000
0.736475 -1.089417 0.000000
0.712663 -1.082464 0.000000
0.691290 -1.078461 0.000000
0.674887 -1.081736 0.000000
0.665254 -1.095884 0.000000
0.657917 -1.114263 0.000000
0.650727 -1.133492 0.000000
0.736229 -1.319503 0.000000
0.711876 -1.358819 0.000000
0.694984 -1.367536 0.000000
0.675333 -1.370660 0.000000
0.653558 -1.368996 0.000000
0.631508 -1.366098 0.000000
0.609223 -1.361951 0.000000
0.589124 -1.362053 0.000000
0.571430 -1.367404 0.000000
0.549578 -1.362324 0.000000
0.525765 -1.351322 0.000000
0.506874 -1.352115 0.000000
0.489401 -1.356411 0.000000
0.468515 -1.355304 0.000000
0.453186 -1.355236 0.000000
0.437907 -1.354996 0.000000
0.422679 -1.354586 0.000000
0.407504 -1.354008 0.000000
0.393219 -1.356143 0.000000
0.378396 -1.356201 0.000000
0.363613 -1.356098 0.000000
0.348870 -1.355835 0.000000
0.333691 -1.353472 0.000000
0.318137 -1.348994 0.000000
0.301609 -1.339463 0.000000
0.222965 -1.060822 0.000000
0.211151 -1.069353 0.000000
0.200251 -1.083653 0.000000
0.000000 -0.000000 0.000000
0.217067 -1.359783 0.000000
0.200292 -1.361345 0.000000
0.183646 -1.363690 0.000000
0.166850 -1.364839 0.000000
0.120022 -1.092427 0.000000
0.106181 -1.088835 0.000000
0.092786 -1.089055 0.000000
0.000000 -0.000000 0.000000
0.000000 -0.000000 0.000000
0.000000 -0.000000 0.000000
0.000000 -0.000000 0.000000
0.017509 -1.208873 0.000000
-0.000212 -1.183000 0.000000
-0.017346 -1.168871 0.000000
-0.034156 -1.157496 0.000000
-0.050636 -1.145882 0.000000
-0.067077 -1.139027 0.000000
-0.083694 -1.136924 0.000000
-0.100353 -1.135574 0.000000
-0.117709 -1.140944 0.000000
-0.133558 -1.147252 0.000000
-0.148916 -1.154435 0.000000
-0.164751 -1.163392 0.000000
-0.181137 -1.174110 0.000000
-0.199954 -1.197420 0.000000
-0.000000 -0.000000 0.000000
-0.000000 -0.000000 0.000000
-0.000000 -0.000000 0.000000
-0.000000 -0.000000 0.000000
-0.000000 -0.000000 0.000000
-0.000000 -0.000000 0.000000
-0.000000 -0.000000 0.000000
-0.000000 -0.000000 0.000000
-0.000000 -0.000000 0.000000
-0.000000 -0.000000 0.000000
-0.745999 -2.381911 0.000000
-0.775457 -2.372484 0.000000
-0.807375 -2.370266 0.000000
-0.842031 -2.375160 0.000000
-0.877969 -2.382371 0.000000
-0.912783 -2.385318 0.000000
-0.947804 -2.387766 0.000000
-0.982646 -2.388785 0.000000
-0.660559 -1.493436 0.000000
-1.018050 -2.390226 0.000000
-0.676104 -1.478770 0.000000
-0.694803 -1.471183 0.000000
-0.713418 -1.463359 0.000000
-0.728351 -1.448153 0.000000
-0.746701 -1.439903 0.000000
-0.770141 -1.441124 0.000000
-0.794691 -1.443735 0.000000
-0.819423 -1.445956 0.000000
-0.844834 -1.448649 0.000000
-0.869922 -1.450075 0.000000
-0.895174 -1.451099 0.000000
-0.911169 -1.456467 0.000000
-0.936751 -1.458008 0.000000
-0.963051 -1.459978 0.000000
-0.990094 -1.462351 0.000000
-1.017902 -1.465104 0.000000
-1.045919 -1.467398 0.000000
-1.074728 -1.470034 0.000000
-1.103751 -1.472187 0.000000
-1.132979 -1.473852 0.000000
-1.163025 -1.475809 0.000000
-1.193909 -1.478033 0.000000
-1.226288 -1.481265 0.000000
-1.261894 -1.482711 0.000000
-1.297904 -1.484665 0.000000
-1.334185 -1.485920 0.000000
-1.370725 -1.486472 0.000000
-1.410949 -1.489942 0.000000
-1.450108 -1.491169 0.000000
-1.488132 -1.490201 0.000000
-1.529245 -1.491276 0.000000
-1.570645 -1.491519 0.000000
-1.604975 -1.484133 0.000000
-1.631951 -1.469405 0.000000
-1.657313 -1.452904 0.000000
-1.684053 -1.438816 0.000000
-1.718655 -1.431920 0.000000
-1.757999 -1.428168 0.000000
-0.000000 -0.000000 0.000000
-0.000000 -0.000000 0.000000
-0.842207 -0.633722 0.000000
-0.844350 -0.619098 0.000000
-0.851143 -0.608007 0.000000
-0.864357 -0.601411 0.000000
-0.886645 -0.600751 0.000000
-0.911551 -0.601281 0.000000
-0.975258 -0.607513 0.000000
-0.938286 -0.602365 0.000000
-1.006659 -0.609890 0.000000
-1.038265 -0.611580 0.000000
-1.069196 -0.612082 0.000000
-1.104665 -0.614339 0.000000
-0.944132 -0.509848 0.000000
-0.944177 -0.494860 0.000000
-0.944888 -0.480403 0.000000
-0.945387 -0.466004 0.000000
-0.946577 -0.452099 0.000000
-0.946661 -0.437816 0.000000
-0.947449 -0.424009 0.000000
-0.948614 -0.408927 0.000000
-0.948992 -0.395218 0.000000
-0.949178 -0.381564 0.000000
-0.949171 -0.367965 0.000000
-0.951784 -0.355476 0.000000
-0.952352 -0.342301 0.000000
-0.952739 -0.329168 0.000000
-0.952949 -0.316078 0.000000
-0.952980 -0.303033 0.000000
-0.953792 -0.290327 0.000000
-0.954436 -0.277648 0.000000
-0.954912 -0.264997 0.000000
-0.956453 -0.251632 0.000000
-0.956336 -0.240035 0.000000
-0.957053 -0.228705 0.000000
-0.957635 -0.217391 0.000000
-0.958085 -0.206092 0.000000
-0.958401 -0.194812 0.000000
-0.958585 -0.183551 0.000000
-0.958637 -0.172311 0.000000
-0.958558 -0.161093 0.000000
-0.959336 -0.150054 0.000000
-0.959987 -0.139018 0.000000
-0.960511 -0.127986 0.000000
-0.961070 -0.115619 0.000000
-0.961471 -0.103258 0.000000
-0.962709 -0.091000 0.000000
-0.963790 -0.078727 0.000000
-0.964715 -0.066442 0.000000
-0.965483 -0.054145 0.000000
-0.966094 -0.041840 0.000000
-0.966549 -0.029528 0.000000
-0.966847 -0.017211 0.000000
-0.966988 -0.004892 0.000000
-0.966971 0.007429 0.000000
-0.968085 0.042101 0.000000
-0.967798 0.019768 0.000000
-0.969476 0.054375 0.000000
-0.969714 0.066621 0.000000
-0.970794 0.078964 0.000000
-0.971716 0.091344 0.000000
-0.972480 0.103759 0.000000
-0.974079 0.116327 0.000000
-0.974523 0.128820 0.000000
-0.974806 0.141343 0.000000
-0.975916 0.154049 0.000000
-0.975875 0.166637 0.000000
-0.976352 0.191732 0.000000
-0.976655 0.179428 0.000000
-0.976838 0.204430 0.000000
-0.976182 0.216953 0.000000
-0.975365 0.229491 0.000000
-0.975358 0.242283 0.000000
-0.975184 0.255110 0.000000
-0.978697 0.269029 0.000000
-0.980093 0.282521 0.000000
-0.981303 0.296089 0.000000
-0.979466 0.308827 0.000000
-0.982214 0.323128 0.000000
-0.980026 0.335923 0.000000
-0.981892 0.351764 0.000000
-0.982015 0.365992 0.000000
-0.982868 0.380640 0.000000
-0.983505 0.395369 0.000000
-0.983926 0.410176 0.000000
-0.984129 0.425058 0.000000
-0.984111 0.440011 0.000000
-0.984779 0.455452 0.000000
-0.985211 0.470980 0.000000
-0.985407 0.486594 0.000000
-0.985364 0.502288 0.000000
-0.986851 0.518990 0.000000
-0.987039 0.537707 0.000000
-0.987664 0.553122 0.000000
-0.988929 0.569122 0.000000
-0.990815 0.585736 0.000000
-0.990737 0.601433 0.000000
-0.990426 0.617208 0.000000
-0.991565 0.634136 0.000000
-0.994951 0.652819 0.000000
-0.997205 0.671108 0.000000
-0.999166 0.689539 0.000000
-1.000830 0.708106 0.000000
-1.002196 0.726806 0.000000
-1.002367 0.748506 0.000000
-1.003859 0.769735 0.000000
-1.005757 0.791740 0.000000
-1.006477 0.813289 0.000000
-1.007580 0.835622 0.000000
-1.009037 0.858761 0.000000
-1.010818 0.882729 0.000000
-1.012151 0.906880 0.000000
-1.013030 0.931207 0.000000
-1.013452 0.955701 0.000000
-1.014849 0.981746 0.000000
-1.017165 1.009388 0.000000
-1.018238 1.036533 0.000000
-1.019339 1.063333 0.000000
-1.019935 1.090312 0.000000
-1.021371 1.118940 0.000000
-1.022256 1.147763 0.000000
-1.023245 1.177527 0.000000
-1.025595 1.209773 0.000000
-1.028583 1.243790 0.000000
-1.032146 1.279614 0.000000
-1.034365 1.314921 0.000000
-1.035265 1.349677 0.000000
-1.036067 1.385448 0.000000
-1.036263 1.426299 0.000000
-1.038922 1.471136 0.000000
-1.038863 1.513823 0.000000
-1.041168 1.561761 0.000000
-1.036933 1.601635 0.000000
-1.025426 1.631512 0.000000
-1.017468 1.668195 0.000000
-1.159426 1.959709 0.000000
-1.151893 2.008076 0.000000
-1.147640 2.064453 0.000000
-0.000000 0.000000 0.000000
-1.158050 2.296542 0.000000
-1.160150 2.225792 0.000000
-1.157170 2.367316 0.000000
-1.127747 2.381473 0.000000
-1.098150 2.395265 0.000000
-1.068385 2.408688 0.000000
-1.045155 2.437366 0.000000
-0.000000 0.000000 0.000000
-0.000000 0.000000 0.000000
-0.000000 0.000000 0.000000
-0.000000 0.000000 0.000000
-0.000000 0.000000 0.000000
-0.000000 0.000000 0.000000
-0.000000 0.000000 0.000000
-0.000000 0.000000 0.000000
-0.000000 0.000000 0.000000
-0.000000 0.000000 0.000000
-0.983994 3.609271 0.000000
-0.934922 3.609898 0.000000
-0.887424 3.615689 0.000000
-0.840834 3.624754 0.000000
-0.793302 3.629311 0.000000
-0.743581 3.622470 0.000000
-0.000000 0.000000 0.000000
-0.000000 0.000000 0.000000
-0.000000 0.000000 0.000000
-0.644167 4.199887 0.000000
-0.591795 4.205566 0.000000
-0.539128 4.208609 0.000000
-0.486592 4.211986 0.000000
-0.205503 1.995446 0.000000
-0.181841 2.009790 0.000000
-0.158634 2.033823 0.000000
-0.134204 2.047607 0.000000
-0.108926 2.051110 0.000000
-0.083624 2.055299 0.000000
-0.058178 2.057178 0.000000
-0.027667 2.058814 0.000000
-0.005028 2.058994 0.000000
0.017621 2.059925 0.000000
0.040289 2.060606 0.000000
0.063004 2.062038 0.000000
0.085756 2.063219 0.000000
0.108542 2.064148 0.000000
0.131358 2.064826 0.000000
0.154277 2.066248 0.000000
0.177244 2.067416 0.000000
0.200349 2.069324 0.000000
0.250367 2.071928 0.000000
0.223520 2.070973 0.000000
0.276948 2.075605 0.000000
0.303370 2.076961 0.000000
0.329867 2.077981 0.000000
0.356604 2.079647 0.000000
0.383253 2.079986 0.000000
0.410352 2.081945 0.000000
0.437557 2.083551 0.000000
0.465083 2.085778 0.000000
0.492502 2.086667 0.000000
0.520013 2.087196 0.000000
0.547866 2.088330 0.000000
0.578646 2.089352 0.000000
0.608826 2.090134 0.000000
0.639419 2.091438 0.000000
0.670765 2.094200 0.000000
0.702295 2.096498 0.000000
0.733343 2.096437 0.000000
0.764856 2.096860 0.000000
0.796863 2.097748 0.000000
0.829394 2.099084 0.000000
0.861721 2.098999 0.000000
0.894975 2.100264 0.000000
0.928413 2.101014 0.000000
0.962810 2.101985 0.000000
0.995625 2.104356 0.000000
1.029086 2.107133 0.000000
1.062316 2.108508 0.000000
1.096198 2.110269 0.000000
1.129814 2.110629 0.000000
1.164090 2.111354 0.000000
1.199543 2.113291 0.000000
1.235220 2.114671 0.000000
1.272146 2.117202 0.000000
1.307219 2.115738 0.000000
1.340305 2.110351 0.000000
1.369632 2.098605 0.000000
1.392191 2.076489 0.000000
0.000000 0.000000 0.000000
1.898125 2.684784 0.000000
1.909515 2.631113 0.000000
1.927037 2.587200 0.000000
1.949234 2.550409 0.000000
1.976985 2.521338 0.000000
2.007450 2.495868 0.000000
2.038860 2.471571 0.000000
2.074497 2.452225 0.000000
2.124382 2.448993 0.000000
2.182523 2.444447 0.000000
2.257516 2.460192 0.000000
0.920024 0.975621 0.000000
0.927652 0.957262 0.000000
0.944126 0.948088 0.000000
0.000000 0.000000 0.000000
0.000000 0.000000 0.000000
0.000000 0.000000 0.000000
0.000000 0.000000 0.000000
0.000000 0.000000 0.000000
0.814362 0.694057 0.000000
0.817934 0.659989 0.000000
0.816806 0.677162 0.000000
0.818976 0.644238 0.000000
0.819754 0.628564 0.000000
0.820270 0.612970 0.000000
0.819719 0.596873 0.000000
0.818080 0.580305 0.000000
0.815336 0.563302 0.000000
0.813126 0.547016 0.000000
0.812313 0.531967 0.000000
0.817156 0.520785 0.000000
0.830346 0.514835 0.000000
0.000000 0.000000 0.000000
2.426758 1.418650 0.000000
2.431108 1.381061 0.000000
2.435778 1.344065 0.000000
2.441668 1.308112 0.000000
2.447930 1.272682 0.000000
2.454583 1.237749 0.000000
0.000000 0.000000 0.000000
2.433891 1.152573 0.000000
2.447077 1.121909 0.000000
2.452564 1.087849 0.000000
2.456666 1.053434 0.000000
0.860132 0.356278 0.000000
0.859089 0.342915 0.000000
0.857730 0.329939 0.000000
0.859933 0.318440 0.000000
0.857272 0.305261 0.000000
0.859148 0.293817 0.000000
0.858972 0.281751 0.000000
0.858628 0.269736 0.000000
0.858119 0.257774 0.000000
0.857445 0.245868 0.000000
0.856609 0.234020 0.000000
0.855610 0.222232 0.000000
0.854451 0.210506 0.000000
0.855151 0.199000 0.000000
0.854391 0.188788 0.000000
0.853510 0.178618 0.000000
0.852509 0.168492 0.000000
0.852371 0.158593 0.000000
0.853105 0.148890 0.000000
0.855702 0.139513 0.000000
0.858195 0.130096 0.000000
0.857614 0.120225 0.000000
0.854936 0.110126 0.000000
0.852140 0.100104 0.000000
0.851217 0.090368 0.000000
0.852354 0.078921 0.000000
0.855260 0.068512 0.000000
0.857041 0.057976 0.000000
0.857694 0.047352 0.000000
0.855218 0.036592 0.000000
0.852607 0.025901 0.000000
0.851862 0.015315 0.000000
0.852987 0.004764 0.000000
