# .PCD v0.7 - Point Cloud Data file format
VERSION 0.7
FIELDS x y z
SIZE 4 4 4
TYPE F F F
COUNT 1 1 1
WIDTH 503
HEIGHT 1
VIEWPOINT 0 0 0 1 0 0 0
POINTS 503
DATA ascii
1.638971 -0.009734 0.000000
1.639750 -0.028631 0.000000
1.637312 -0.047459 0.000000
1.637656 -0.066357 0.000000
1.643774 -0.085579 0.000000
1.642679 -0.104508 0.000000
1.643360 -0.123573 0.000000
1.643821 -0.142668 0.000000
1.644058 -0.161790 0.000000
1.644074 -0.180935 0.000000
1.648956 -0.223249 0.000000
1.643866 -0.200103 0.000000
0.000000 -0.000000 0.000000
0.000000 -0.000000 0.000000
2.121325 -0.367953 0.000000
2.127417 -0.396225 0.000000
2.129209 -0.423924 0.000000
2.128684 -0.451313 0.000000
2.128781 -0.478972 0.000000
2.133384 -0.507862 0.000000
2.150203 -0.540105 0.000000
2.166548 -0.572843 0.000000
1.989775 -0.581485 0.000000
2.002228 -0.556030 0.000000
1.997718 -0.610774 0.000000
2.013811 -0.643088 0.000000
2.047433 -0.681896 0.000000
2.080396 -0.721633 0.000000
2.843562 -1.026005 0.000000
2.846548 -1.067129 0.000000
2.848949 -1.108485 0.000000
2.849833 -1.149688 0.000000
2.849207 -1.190698 0.000000
2.847083 -1.231471 0.000000
2.845298 -1.272780 0.000000
2.816815 -1.308735 0.000000
2.727339 -1.310839 0.000000
2.646363 -1.314834 0.000000
2.565760 -1.316940 0.000000
2.490868 -1.319977 0.000000
2.424243 -1.325600 0.000000
2.346581 -1.323326 0.000000
2.277186 -1.323774 0.000000
2.211622 -1.324692 0.000000
2.150688 -1.326752 0.000000
2.089243 -1.326910 0.000000
2.038213 -1.332259 0.000000
1.987535 -1.338102 0.000000
1.944481 -1.344429 0.000000
1.908918 -1.355107 0.000000
1.876623 -1.367469 0.000000
1.427084 -1.067218 0.000000
1.412164 -1.083602 0.000000
1.397057 -1.099780 0.000000
1.384099 -1.117637 0.000000
1.595805 -1.321586 0.000000
1.577782 -1.339964 0.000000
1.552762 -1.352188 0.000000
1.519475 -1.356674 0.000000
1.484133 -1.359970 0.000000
1.449912 -1.361571 0.000000
1.411553 -1.358381 0.000000
1.369932 -1.350949 0.000000
1.323783 -1.337731 0.000000
1.283722 -1.329346 0.000000
0.965627 -1.024709 0.000000
0.952360 -1.035693 0.000000
0.938968 -1.046506 0.000000
0.926113 -1.057899 0.000000
0.914418 -1.070656 0.000000
0.847161 -1.044674 0.000000
0.901909 -1.082516 0.000000
0.833531 -1.054307 0.000000
0.824675 -1.070099 0.000000
0.821561 -1.093829 0.000000
0.823300 -1.124906 0.000000
0.820327 -1.150492 0.000000
0.809430 -1.165497 0.000000
0.000000 -0.000000 0.000000
0.752805 -1.143436 0.000000
0.721853 -1.126575 0.000000
0.697258 -1.118461 0.000000
0.675049 -1.113334 0.000000
0.653705 -1.109781 0.000000
0.636012 -1.109653 0.000000
0.622312 -1.116249 0.000000
0.609019 -1.123557 0.000000
0.599371 -1.137783 0.000000
0.589470 -1.151938 0.000000
0.579762 -1.166913 0.000000
0.571518 -1.185421 0.000000
0.564186 -1.206614 0.000000
0.557257 -1.229620 0.000000
0.665620 -1.516340 0.000000
0.655006 -1.541620 0.000000
0.634500 -1.550172 0.000000
0.614875 -1.556986 0.000000
0.594823 -1.562616 0.000000
0.585739 -1.598034 0.000000
0.000000 -0.000000 0.000000
0.000000 -0.000000 0.000000
1.594198 -4.906507 0.000000
1.527631 -4.907743 0.000000
1.462704 -4.912879 0.000000
1.396790 -4.913312 0.000000
1.197846 -4.921320 0.000000
1.331355 -4.913835 0.000000
1.266871 -4.916398 0.000000
1.136023 -4.924669 0.000000
1.074504 -4.928223 0.000000
0.000000 -0.000000 0.000000
0.000000 -0.000000 0.000000
0.000000 -0.000000 0.000000
0.244124 -1.452630 0.000000
0.226305 -1.453488 0.000000
0.208501 -1.454128 0.000000
0.190714 -1.454551 0.000000
0.172948 -1.454756 0.000000
0.155099 -1.453750 0.000000
0.135524 -1.452692 0.000000
0.116868 -1.446286 0.000000
0.098801 -1.445628 0.000000
0.080210 -1.434760 0.000000
0.061817 -1.421657 0.000000
0.043884 -1.412318 0.000000
0.026343 -1.410754 0.000000
0.008847 -1.408972 0.000000
-0.008613 -1.408974 0.000000
-0.026072 -1.408759 0.000000
-0.043588 -1.410327 0.000000
-0.061103 -1.410677 0.000000
-0.080908 -1.411683 0.000000
-0.098465 -1.411570 0.000000
-0.116113 -1.412235 0.000000
-0.000000 -0.000000 0.000000
-0.060771 -0.566751 0.000000
-0.066957 -0.559004 0.000000
-0.073878 -0.558132 0.000000
-0.080932 -0.558163 0.000000
-0.088310 -0.560081 0.000000
-0.095411 -0.559929 0.000000
-0.102522 -0.559688 0.000000
-0.117462 -0.559809 0.000000
-0.109834 -0.560337 0.000000
-0.124630 -0.560307 0.000000
-0.131826 -0.560712 0.000000
-0.139050 -0.561025 0.000000
-0.146300 -0.561245 0.000000
-0.154895 -0.566195 0.000000
-0.161978 -0.565250 0.000000
-0.169921 -0.567090 0.000000
-0.177037 -0.565957 0.000000
-0.180740 -0.554276 0.000000
-0.161043 -0.474411 0.000000
-0.159755 -0.452635 0.000000
-0.160296 -0.435432 0.000000
-0.161111 -0.421241 0.000000
-0.161595 -0.407101 0.000000
-0.161751 -0.393016 0.000000
-0.161970 -0.379914 0.000000
-0.162291 -0.367785 0.000000
-0.162333 -0.355709 0.000000
-0.162524 -0.344597 0.000000
-0.162900 -0.334436 0.000000
-0.163497 -0.325215 0.000000
-0.163887 -0.316033 0.000000
-0.164545 -0.307776 0.000000
-0.165505 -0.300428 0.000000
-0.165813 -0.292237 0.000000
-0.166445 -0.284949 0.000000
-0.166922 -0.277692 0.000000
-0.167243 -0.270470 0.000000
-0.167945 -0.264128 0.000000
-0.168515 -0.257811 0.000000
-0.168954 -0.251523 0.000000
-0.169261 -0.245264 0.000000
-0.171173 -0.241487 0.000000
-0.171840 -0.236083 0.000000
-0.172399 -0.230700 0.000000
-0.173734 -0.225923 0.000000
-0.172185 -0.218257 0.000000
-0.173618 -0.214552 0.000000
-0.171793 -0.206998 0.000000
-0.173049 -0.203330 0.000000
-0.172925 -0.198156 0.000000
-0.173367 -0.193763 0.000000
-0.173051 -0.188652 0.000000
-0.173320 -0.184308 0.000000
-0.173508 -0.179986 0.000000
-0.172914 -0.174977 0.000000
-0.172934 -0.170713 0.000000
-0.173049 -0.166295 0.000000
-0.172178 -0.161402 0.000000
-0.172689 -0.157907 0.000000
-0.172393 -0.153758 0.000000
-0.172777 -0.150297 0.000000
-0.172338 -0.146204 0.000000
-0.172595 -0.142782 0.000000
-0.172016 -0.138749 0.000000
-0.172150 -0.135371 0.000000
-0.172227 -0.132011 0.000000
-0.172248 -0.128669 0.000000
-0.173020 -0.125937 0.000000
-0.173107 -0.122384 0.000000
-0.173088 -0.118915 0.000000
-0.173007 -0.115467 0.000000
-0.172864 -0.112044 0.000000
-0.173508 -0.109179 0.000000
-0.173253 -0.105795 0.000000
-0.172938 -0.102438 0.000000
-0.173432 -0.099606 0.000000
-0.173007 -0.096294 0.000000
-0.173405 -0.093486 0.000000
-0.173760 -0.090684 0.000000
-0.173177 -0.087439 0.000000
-0.173453 -0.084635 0.000000
-0.173584 -0.082052 0.000000
-0.173678 -0.079479 0.000000
-0.173735 -0.076916 0.000000
-0.173756 -0.074364 0.000000
-0.174664 -0.072205 0.000000
-0.174616 -0.069664 0.000000
-0.174533 -0.067136 0.000000
-0.175351 -0.064968 0.000000
-0.175201 -0.062455 0.000000
-0.175016 -0.059955 0.000000
-0.174795 -0.057469 0.000000
-0.175552 -0.055115 0.000000
-0.175263 -0.052648 0.000000
-0.174941 -0.050196 0.000000
-0.174585 -0.047760 0.000000
-0.175163 -0.045593 0.000000
-0.174744 -0.043180 0.000000
-0.174292 -0.040783 0.000000
-0.174784 -0.038620 0.000000
-0.175249 -0.036451 0.000000
-0.174706 -0.034085 0.000000
-0.175115 -0.031918 0.000000
-0.175497 -0.029746 0.000000
-0.174888 -0.027261 0.000000
-0.175212 -0.025092 0.000000
-0.174518 -0.022789 0.000000
-0.174787 -0.020625 0.000000
-0.175029 -0.018458 0.000000
-0.174249 -0.016195 0.000000
-0.174436 -0.014034 0.000000
-0.174597 -0.011872 0.000000
-0.174731 -0.009707 0.000000
-0.174837 -0.007541 0.000000
-0.175917 -0.005405 0.000000
-0.175970 -0.003225 0.000000
-0.175998 -0.000890 0.000000
-0.175997 0.001106 0.000000
-0.175973 0.003103 0.000000
-0.176926 0.005128 0.000000
-0.176856 0.007135 0.000000
-0.176764 0.009141 0.000000
-0.176649 0.011145 0.000000
-0.176511 0.013149 0.000000
-0.176350 0.015150 0.000000
-0.176167 0.017150 0.000000
-0.176955 0.019255 0.000000
-0.177411 0.023798 0.000000
-0.177718 0.021381 0.000000
-0.178092 0.026140 0.000000
-0.178742 0.028502 0.000000
-0.178375 0.030715 0.000000
-0.178964 0.033105 0.000000
-0.179521 0.035514 0.000000
-0.179067 0.037736 0.000000
-0.179562 0.040170 0.000000
-0.179050 0.042392 0.000000
-0.178511 0.044608 0.000000
-0.178912 0.047071 0.000000
-0.179278 0.049550 0.000000
-0.179593 0.052109 0.000000
-0.178877 0.054518 0.000000
-0.179080 0.057221 0.000000
-0.179244 0.059940 0.000000
-0.179366 0.062673 0.000000
-0.179447 0.065420 0.000000
-0.179486 0.068181 0.000000
-0.179484 0.070954 0.000000
-0.180364 0.074120 0.000000
-0.180271 0.076930 0.000000
-0.181050 0.080155 0.000000
-0.181774 0.083415 0.000000
-0.181540 0.086280 0.000000
-0.181386 0.088900 0.000000
-0.181195 0.091529 0.000000
-0.180966 0.094166 0.000000
-0.181582 0.097282 0.000000
-0.181273 0.099945 0.000000
-0.181796 0.103107 0.000000
-0.182269 0.106297 0.000000
-0.182691 0.109512 0.000000
-0.183062 0.112753 0.000000
-0.182536 0.115484 0.000000
-0.182809 0.118764 0.000000
-0.182795 0.122417 0.000000
-0.182912 0.125806 0.000000
-0.182973 0.129217 0.000000
-0.182977 0.132648 0.000000
-0.183726 0.136696 0.000000
-0.184402 0.140783 0.000000
-0.185005 0.144907 0.000000
-0.185534 0.149067 0.000000
-0.186760 0.153899 0.000000
-0.187894 0.158783 0.000000
-0.188934 0.163719 0.000000
-0.189074 0.172589 0.000000
-0.189134 0.168040 0.000000
-0.189112 0.176968 0.000000
-0.189069 0.181375 0.000000
-0.188946 0.185807 0.000000
-0.188742 0.190264 0.000000
-0.189151 0.195463 0.000000
-0.189461 0.200700 0.000000
-0.189669 0.205975 0.000000
-0.189775 0.211285 0.000000
-0.191755 0.218886 0.000000
-0.190327 0.222766 0.000000
-0.192032 0.230485 0.000000
-0.191984 0.236996 0.000000
-0.190272 0.240927 0.000000
-0.189712 0.246436 0.000000
-0.188444 0.251167 0.000000
-0.187678 0.256712 0.000000
-0.186803 0.262276 0.000000
-0.187528 0.270322 0.000000
-0.187523 0.277597 0.000000
-0.187365 0.284913 0.000000
-0.187055 0.292266 0.000000
-0.187119 0.300504 0.000000
-0.187399 0.319032 0.000000
-0.187525 0.309642 0.000000
-0.188295 0.328916 0.000000
-0.189480 0.339733 0.000000
-0.190447 0.350615 0.000000
-0.190258 0.359793 0.000000
-0.190803 0.370787 0.000000
-0.191573 0.382732 0.000000
-0.192537 0.395638 0.000000
-0.193664 0.409516 0.000000
-0.194921 0.424376 0.000000
-0.195462 0.438400 0.000000
-0.196508 0.454323 0.000000
-0.197745 0.475523 0.000000
-0.000000 0.000000 0.000000
-0.000000 0.000000 0.000000
-0.000000 0.000000 0.000000
-0.000000 0.000000 0.000000
-0.000000 0.000000 0.000000
-0.000000 0.000000 0.000000
-0.000000 0.000000 0.000000
-0.000000 0.000000 0.000000
-0.000000 0.000000 0.000000
-0.000000 0.000000 0.000000
-0.000000 0.000000 0.000000
-0.000000 0.000000 0.000000
-0.000000 0.000000 0.000000
-0.000000 0.000000 0.000000
-0.000000 0.000000 0.000000
-0.000000 0.000000 0.000000
-0.000000 0.000000 0.000000
-0.000000 0.000000 0.000000
-0.000000 0.000000 0.000000
-0.000000 0.000000 0.000000
-0.000000 0.000000 0.000000
-0.000000 0.000000 0.000000
-0.000000 0.000000 0.000000
-0.000000 0.000000 0.000000
-0.000000 0.000000 0.000000
-0.167375 3.292749 0.000000
-0.124510 3.316664 0.000000
-0.080482 3.317024 0.000000
-0.040140 3.650779 0.000000
0.008302 3.656991 0.000000
0.056949 3.665558 0.000000
0.105851 3.674476 0.000000
0.155043 3.683739 0.000000
0.204611 3.694338 0.000000
0.000000 0.000000 0.000000
0.000000 0.000000 0.000000
0.402008 4.236971 0.000000
0.455122 4.237630 0.000000
0.508312 4.237622 0.000000
0.561571 4.236947 0.000000
0.609719 4.199974 0.000000
0.000000 0.000000 0.000000
0.000000 0.000000 0.000000
0.000000 0.000000 0.000000
0.000000 0.000000 0.000000
0.000000 0.000000 0.000000
0.000000 0.000000 0.000000
0.000000 0.000000 0.000000
0.000000 0.000000 0.000000
0.000000 0.000000 0.000000
0.000000 0.000000 0.000000
0.000000 0.000000 0.000000
0.615128 2.024617 0.000000
0.643902 2.026146 0.000000
0.680687 2.050996 0.000000
0.717883 2.074287 0.000000
0.747644 2.074380 0.000000
0.777521 2.074050 0.000000
0.840920 2.075084 0.000000
0.871213 2.075570 0.000000
0.807875 2.074226 0.000000
0.902046 2.076538 0.000000
0.933444 2.077972 0.000000
0.965016 2.078944 0.000000
0.996754 2.079451 0.000000
1.029097 2.080385 0.000000
1.062068 2.081725 0.000000
1.095229 2.082566 0.000000
1.127621 2.081144 0.000000
1.162581 2.083603 0.000000
1.197275 2.084646 0.000000
1.235299 2.082133 0.000000
1.269447 2.083771 0.000000
1.305391 2.087438 0.000000
1.340514 2.088863 0.000000
1.376395 2.090585 0.000000
1.413060 2.092579 0.000000
1.452233 2.097289 0.000000
1.489393 2.098103 0.000000
1.526181 2.097525 0.000000
1.566146 2.100378 0.000000
1.606992 2.103375 0.000000
1.648118 2.105702 0.000000
1.693193 2.104399 0.000000
1.736961 2.104853 0.000000
1.781645 2.105304 0.000000
1.825947 2.104213 0.000000
1.872487 2.104586 0.000000
1.922683 2.107819 0.000000
1.974610 2.111587 0.000000
2.024152 2.111500 0.000000
2.079599 2.116213 0.000000
2.133342 2.117756 0.000000
2.171632 2.102985 0.000000
2.202612 2.080721 0.000000
2.786932 2.535909 0.000000
2.818578 2.500688 0.000000
2.854317 2.468997 0.000000
2.892762 2.439381 0.000000
2.937093 2.414268 0.000000
3.001538 2.404680 0.000000
3.174975 2.478774 0.000000
3.205873 2.438681 0.000000
3.221802 2.387486 0.000000
3.223980 2.326914 0.000000
3.222694 2.264942 0.000000
3.227070 2.150558 0.000000
3.226141 2.207327 0.000000
3.225785 2.092447 0.000000
3.225252 2.035766 0.000000
3.230630 1.983610 0.000000
3.227487 1.927021 0.000000
1.688263 0.979832 0.000000
1.715954 0.967678 0.000000
1.740092 0.953066 0.000000
1.762364 0.937065 0.000000
1.779173 0.917904 0.000000
1.790410 0.895788 0.000000
1.589923 0.770996 0.000000
1.588368 0.744045 0.000000
1.585626 0.718938 0.000000
1.585255 0.695217 0.000000
1.587303 0.672789 0.000000
1.589040 0.650417 0.000000
1.590467 0.628105 0.000000
1.589717 0.605146 0.000000
1.589582 0.582648 0.000000
1.591021 0.560911 0.000000
1.592167 0.539228 0.000000
0.000000 0.000000 0.000000
0.000000 0.000000 0.000000
2.859715 0.848714 0.000000
2.865061 0.812349 0.000000
2.868979 0.775721 0.000000
2.870494 0.738619 0.000000
2.872504 0.701834 0.000000
1.628950 0.376971 0.000000
1.633434 0.357041 0.000000
1.637674 0.337060 0.000000
1.638724 0.316458 0.000000
1.638531 0.295704 0.000000
1.638077 0.275002 0.000000
1.637418 0.233622 0.000000
1.637362 0.254354 0.000000
1.636220 0.212798 0.000000
1.636745 0.192273 0.000000
1.637013 0.171768 0.000000
1.637024 0.151286 0.000000
1.635783 0.130750 0.000000
1.636280 0.110402 0.000000
1.637522 0.090118 0.000000
1.638513 0.069820 0.000000
1.634255 0.049359 0.000000
1.634741 0.029105 0.000000
1.640976 0.008879 0.000000
