# .PCD v0.7 - Point Cloud Data file format
VERSION 0.7
FIELDS x y z
SIZE 4 4 4
TYPE F F F
COUNT 1 1 1
WIDTH 501
HEIGHT 1
VIEWPOINT 0 0 0 1 0 0 0
POINTS 501
DATA ascii
0.981997 -0.002405 0.000000
0.983902 -0.013916 0.000000
0.986671 -0.025498 0.000000
0.993300 -0.037296 0.000000
1.005780 -0.049548 0.000000
1.019106 -0.062158 0.000000
1.027247 -0.087891 0.000000
1.026289 -0.074651 0.000000
1.034041 -0.101394 0.000000
1.045626 -0.115628 0.000000
1.060986 -0.130654 0.000000
1.069194 -0.145137 0.000000
1.074238 -0.159402 0.000000
1.085015 -0.174768 0.000000
1.097544 -0.190768 0.000000
1.106892 -0.206556 0.000000
1.113074 -0.222016 0.000000
1.118063 -0.237453 0.000000
1.144301 -0.257886 0.000000
0.000000 -0.000000 0.000000
0.000000 -0.000000 0.000000
2.593871 -0.693584 0.000000
2.549916 -0.717724 0.000000
2.516329 -0.743951 0.000000
2.474855 -0.767056 0.000000
2.440822 -0.791672 0.000000
2.404679 -0.814888 0.000000
2.365522 -0.836295 0.000000
2.327159 -0.857164 0.000000
2.287727 -0.876815 0.000000
2.218673 -0.920378 0.000000
2.253758 -0.897804 0.000000
2.186882 -0.939120 0.000000
2.154058 -0.956810 0.000000
2.119316 -0.972997 0.000000
2.088122 -0.990187 0.000000
2.057728 -1.007192 0.000000
2.028129 -1.024050 0.000000
2.000205 -1.041253 0.000000
1.973049 -1.058395 0.000000
1.947528 -1.075993 0.000000
1.921876 -1.093121 0.000000
1.896964 -1.110285 0.000000
1.869953 -1.130266 0.000000
1.846161 -1.144235 0.000000
1.820604 -1.156741 0.000000
1.795838 -1.169365 0.000000
1.771018 -1.181581 0.000000
1.746151 -1.193390 0.000000
1.720424 -1.204218 0.000000
1.697112 -1.216370 0.000000
1.676163 -1.229926 0.000000
0.000000 -0.000000 0.000000
1.376334 -1.058018 0.000000
1.350660 -1.092193 0.000000
1.360500 -1.070234 0.000000
1.344894 -1.118150 0.000000
1.527194 -1.305281 0.000000
1.509284 -1.325950 0.000000
1.485156 -1.341012 0.000000
1.457234 -1.352262 0.000000
1.431453 -1.365074 0.000000
1.404881 -1.376735 0.000000
1.375439 -1.385089 0.000000
1.348812 -1.395774 0.000000
1.326261 -1.410364 0.000000
1.305589 -1.426812 0.000000
1.284065 -1.438180 0.000000
1.262861 -1.450211 0.000000
1.241557 -1.461937 0.000000
1.222071 -1.475669 0.000000
1.201178 -1.487587 0.000000
1.180177 -1.499215 0.000000
1.156031 -1.506583 0.000000
1.131285 -1.512784 0.000000
0.962869 -1.321404 0.000000
0.923266 -1.300617 0.000000
0.910491 -1.316893 0.000000
0.000000 -0.000000 0.000000
0.000000 -0.000000 0.000000
0.000000 -0.000000 0.000000
0.835966 -1.352502 0.000000
0.823264 -1.369613 0.000000
0.813797 -1.392661 0.000000
0.000000 -0.000000 0.000000
0.000000 -0.000000 0.000000
0.805849 -1.504811 0.000000
0.771924 -1.485399 0.000000
0.748507 -1.485027 0.000000
0.726098 -1.486102 0.000000
0.707199 -1.494081 0.000000
0.688784 -1.503759 0.000000
0.674149 -1.521322 0.000000
0.658396 -1.536912 0.000000
0.643507 -1.555117 0.000000
0.635314 -1.590832 0.000000
2.129456 -5.530180 0.000000
1.782219 -4.805135 0.000000
0.000000 -0.000000 0.000000
0.000000 -0.000000 0.000000
0.000000 -0.000000 0.000000
0.000000 -0.000000 0.000000
0.000000 -0.000000 0.000000
0.000000 -0.000000 0.000000
0.000000 -0.000000 0.000000
0.000000 -0.000000 0.000000
0.713225 -2.882060 0.000000
0.680651 -2.904308 0.000000
0.648067 -2.928141 0.000000
0.615406 -2.953568 0.000000
0.582405 -2.979614 0.000000
0.378896 -2.074685 0.000000
0.352991 -2.078235 0.000000
0.327211 -2.082450 0.000000
0.273396 -2.085153 0.000000
0.300810 -2.082386 0.000000
0.247995 -2.095375 0.000000
0.222906 -2.110260 0.000000
0.197573 -2.125839 0.000000
0.171884 -2.141112 0.000000
0.145911 -2.157071 0.000000
0.119507 -2.171714 0.000000
0.092845 -2.188031 0.000000
0.065790 -2.204018 0.000000
0.038347 -2.219669 0.000000
0.010529 -2.235975 0.000000
-0.017697 -2.251930 0.000000
-0.047131 -2.268511 0.000000
-0.073011 -2.284834 0.000000
-0.099346 -2.302858 0.000000
-0.126093 -2.320577 0.000000
-0.153315 -2.338981 0.000000
-0.181038 -2.358061 0.000000
-0.209119 -2.375814 0.000000
-0.237818 -2.395223 0.000000
-0.266755 -2.412296 0.000000
-0.296952 -2.435967 0.000000
-0.183998 -1.380795 0.000000
-0.199410 -1.378653 0.000000
-0.218827 -1.387854 0.000000
-0.240406 -1.400516 0.000000
-0.262371 -1.412845 0.000000
-0.285303 -1.427774 0.000000
-0.308480 -1.441359 0.000000
-0.332969 -1.458474 0.000000
-0.342418 -1.411047 0.000000
-0.341173 -1.326839 0.000000
-0.353960 -1.302771 0.000000
-0.367257 -1.282450 0.000000
-0.380356 -1.262969 0.000000
-0.393295 -1.244325 0.000000
-0.405583 -1.225636 0.000000
-0.416808 -1.207063 0.000000
-0.427962 -1.189346 0.000000
-0.439078 -1.172482 0.000000
-0.450193 -1.156463 0.000000
-0.460594 -1.139427 0.000000
-0.470245 -1.121395 0.000000
-0.479506 -1.103305 0.000000
-0.488791 -1.086078 0.000000
-0.498134 -1.069702 0.000000
-0.507569 -1.054170 0.000000
-0.516687 -1.038573 0.000000
-0.526559 -1.022368 0.000000
-0.535788 -1.008511 0.000000
-0.544751 -0.994587 0.000000
-0.553446 -0.980599 0.000000
-0.561874 -0.966552 0.000000
-0.570547 -0.953308 0.000000
-0.578451 -0.939150 0.000000
-0.586623 -0.925791 0.000000
-0.594549 -0.912377 0.000000
-0.602785 -0.899744 0.000000
-0.610797 -0.887049 0.000000
-0.618583 -0.874297 0.000000
-0.626431 -0.862520 0.000000
-0.633782 -0.849659 0.000000
-0.641516 -0.837546 0.000000
-0.649043 -0.825374 0.000000
-0.656366 -0.813147 0.000000
-0.665397 -0.803179 0.000000
-0.671042 -0.789303 0.000000
-0.679729 -0.779182 0.000000
-0.684932 -0.765243 0.000000
-0.691244 -0.752772 0.000000
-0.699408 -0.742448 0.000000
-0.710478 -0.716451 0.000000
-0.706031 -0.730600 0.000000
-0.717013 -0.707066 0.000000
-0.721986 -0.696236 0.000000
-0.726808 -0.685384 0.000000
-0.731478 -0.674511 0.000000
-0.737481 -0.664959 0.000000
-0.742612 -0.654696 0.000000
-0.747606 -0.644402 0.000000
-0.752463 -0.634078 0.000000
-0.757955 -0.624362 0.000000
-0.763324 -0.614602 0.000000
-0.768570 -0.604801 0.000000
-0.775351 -0.592796 0.000000
-0.782038 -0.582273 0.000000
-0.788584 -0.571675 0.000000
-0.794986 -0.561005 0.000000
-0.801245 -0.550265 0.000000
-0.807359 -0.539456 0.000000
-0.813328 -0.528581 0.000000
-0.819996 -0.518176 0.000000
-0.825679 -0.507163 0.000000
-0.832074 -0.496603 0.000000
-0.838333 -0.485961 0.000000
-0.851321 -0.464923 0.000000
-0.845328 -0.475731 0.000000
-0.857254 -0.453889 0.000000
-0.863934 -0.443236 0.000000
-0.870482 -0.432487 0.000000
-0.876896 -0.421641 0.000000
-0.883176 -0.410703 0.000000
-0.889318 -0.399672 0.000000
-0.895323 -0.388551 0.000000
-0.902112 -0.377728 0.000000
-0.908769 -0.366795 0.000000
-0.915295 -0.355752 0.000000
-0.921686 -0.344601 0.000000
-0.929174 -0.332873 0.000000
-0.935175 -0.321821 0.000000
-0.941994 -0.310985 0.000000
-0.948688 -0.300028 0.000000
-0.954297 -0.288662 0.000000
-0.960732 -0.277480 0.000000
-0.967035 -0.266181 0.000000
-0.974173 -0.255022 0.000000
-0.981183 -0.243724 0.000000
-0.988062 -0.232291 0.000000
-0.997736 -0.221373 0.000000
-1.012024 -0.196898 0.000000
-1.002397 -0.209226 0.000000
-1.019305 -0.185236 0.000000
-1.026453 -0.173424 0.000000
-1.033463 -0.161463 0.000000
-1.041324 -0.149498 0.000000
-1.048054 -0.137231 0.000000
-1.054639 -0.124822 0.000000
-1.062071 -0.112375 0.000000
-1.069357 -0.099763 0.000000
-1.076491 -0.086988 0.000000
-1.084470 -0.074119 0.000000
-1.092294 -0.061066 0.000000
-1.100010 -0.046678 0.000000
-1.107495 -0.033447 0.000000
-1.114820 -0.020040 0.000000
-1.122981 -0.006465 0.000000
-1.130976 0.007307 0.000000
-1.138801 0.021273 0.000000
-1.146453 0.035431 0.000000
-1.154926 0.049822 0.000000
-1.163217 0.064426 0.000000
-1.172320 0.079307 0.000000
-1.181232 0.094420 0.000000
-1.189948 0.109763 0.000000
-1.200410 0.125960 0.000000
-1.211618 0.142764 0.000000
-1.221599 0.159746 0.000000
-1.231343 0.177004 0.000000
-1.240843 0.194536 0.000000
-1.252066 0.212673 0.000000
-1.262043 0.230949 0.000000
-1.271755 0.249512 0.000000
-1.283154 0.268769 0.000000
-1.295243 0.288575 0.000000
-1.309952 0.309422 0.000000
-1.322397 0.330205 0.000000
-1.334812 0.354172 0.000000
-1.348361 0.376726 0.000000
-1.363464 0.400259 0.000000
-1.377223 0.423956 0.000000
-1.388688 0.447467 0.000000
-1.397875 0.470712 0.000000
-1.403859 0.493279 0.000000
-1.409489 0.516083 0.000000
-1.421302 0.541610 0.000000
-0.000000 0.000000 0.000000
-1.639690 0.674497 0.000000
-1.659233 0.708070 0.000000
-1.680921 0.745939 0.000000
-1.692454 0.776301 0.000000
-1.707105 0.808773 0.000000
-1.727495 0.844801 0.000000
-1.757964 0.886861 0.000000
-1.783213 0.927496 0.000000
-1.806839 0.968417 0.000000
-1.834096 1.012480 0.000000
-1.850969 1.051929 0.000000
-1.878363 1.098512 0.000000
-1.865464 1.122219 0.000000
-1.851414 1.145248 0.000000
-1.829546 1.166902 0.000000
-1.815782 1.190032 0.000000
-1.812510 1.220259 0.000000
-0.000000 0.000000 0.000000
-0.000000 0.000000 0.000000
-0.000000 0.000000 0.000000
-1.986871 1.485835 0.000000
-2.025428 1.554172 0.000000
-2.062588 1.623686 0.000000
-0.000000 0.000000 0.000000
-0.000000 0.000000 0.000000
-0.000000 0.000000 0.000000
-0.000000 0.000000 0.000000
-0.000000 0.000000 0.000000
-2.154713 1.975131 0.000000
-2.128266 2.000681 0.000000
-2.095757 2.020327 0.000000
-2.063804 2.040176 0.000000
-2.030279 2.058118 0.000000
-1.996631 2.075540 0.000000
-1.962866 2.092443 0.000000
-1.929668 2.109565 0.000000
-1.897016 2.126930 0.000000
-1.864234 2.143808 0.000000
-1.835854 2.165539 0.000000
-1.808241 2.187352 0.000000
-2.339521 2.902520 0.000000
-2.307699 2.936792 0.000000
-2.271132 2.965162 0.000000
-2.233017 2.991475 0.000000
-0.875840 1.204170 0.000000
-0.860274 1.214114 0.000000
-0.854251 1.237850 0.000000
-0.848886 1.263280 0.000000
-0.837546 1.280397 0.000000
-0.822690 1.292364 0.000000
-0.806299 1.305005 0.000000
-0.791959 1.314924 0.000000
-0.777497 1.324687 0.000000
-0.761923 1.332553 0.000000
-0.746757 1.341111 0.000000
-0.731971 1.350376 0.000000
-0.717072 1.359477 0.000000
-0.702059 1.368414 0.000000
-0.687383 1.378080 0.000000
-0.672141 1.386689 0.000000
-0.657219 1.396034 0.000000
-0.642171 1.405219 0.000000
-0.625023 1.415117 0.000000
-0.608618 1.425512 0.000000
-0.592051 1.435718 0.000000
-0.575693 1.446660 0.000000
-0.558798 1.456484 0.000000
-0.542093 1.467049 0.000000
-0.526217 1.480249 0.000000
-0.508481 1.488548 0.000000
-0.492177 1.501387 0.000000
-0.475033 1.512140 0.000000
-0.457698 1.522699 0.000000
-0.440451 1.534021 0.000000
-0.421104 1.545663 0.000000
-0.401815 1.555954 0.000000
-0.382802 1.567947 0.000000
-0.363540 1.579709 0.000000
-0.344246 1.592211 0.000000
-0.324881 1.605458 0.000000
-0.305225 1.618470 0.000000
-0.284938 1.629272 0.000000
-0.264256 1.638831 0.000000
-0.243518 1.649117 0.000000
-0.222819 1.661122 0.000000
-0.201844 1.672867 0.000000
-0.181185 1.684283 0.000000
-0.161342 1.697349 0.000000
-0.141037 1.708188 0.000000
-0.120488 1.718782 0.000000
-0.099757 1.730127 0.000000
-0.078853 1.743217 0.000000
-0.057671 1.757054 0.000000
-0.036180 1.771631 0.000000
-0.014329 1.784942 0.000000
0.007852 1.798983 0.000000
0.030361 1.811746 0.000000
0.053217 1.825224 0.000000
0.082187 1.838164 0.000000
0.105814 1.851980 0.000000
0.129727 1.864492 0.000000
0.154129 1.878688 0.000000
0.179090 1.894554 0.000000
0.204469 1.910087 0.000000
0.230379 1.926273 0.000000
0.256458 1.940123 0.000000
0.283346 1.956590 0.000000
0.310837 1.973673 0.000000
0.338793 1.990372 0.000000
0.367211 2.006678 0.000000
0.398396 2.023147 0.000000
0.429527 2.038234 0.000000
0.458277 2.040163 0.000000
0.485530 2.034877 0.000000
0.512723 2.029227 0.000000
0.727278 2.725639 0.000000
0.763097 2.714790 0.000000
0.798756 2.703470 0.000000
0.834248 2.691683 0.000000
0.869878 2.680380 0.000000
0.907282 2.674288 0.000000
0.946345 2.672388 0.000000
0.994442 2.686877 0.000000
1.043442 2.715420 0.000000
0.000000 0.000000 0.000000
1.187902 2.876358 0.000000
1.212052 2.834752 0.000000
1.235355 2.792994 0.000000
1.258644 2.752916 0.000000
1.281556 2.713598 0.000000
1.303251 2.673240 0.000000
1.326393 2.637231 0.000000
1.348842 2.601062 0.000000
1.372485 2.568273 0.000000
1.383639 2.506454 0.000000
1.409157 2.479553 0.000000
1.429678 2.444636 0.000000
1.449035 2.408738 0.000000
1.469303 2.375289 0.000000
1.490574 2.344242 0.000000
1.511305 2.313034 0.000000
1.530933 2.280844 0.000000
1.548863 2.246879 0.000000
1.562144 2.207107 0.000000
0.605419 0.833287 0.000000
0.620481 0.832134 0.000000
0.635778 0.831863 0.000000
0.651591 0.831003 0.000000
0.668106 0.830657 0.000000
0.681529 0.826171 0.000000
0.694943 0.821480 0.000000
0.712933 0.821871 0.000000
0.739012 0.830906 0.000000
0.769465 0.843853 0.000000
0.790789 0.845941 0.000000
0.583957 0.609369 0.000000
0.590061 0.600659 0.000000
0.596040 0.591892 0.000000
0.602189 0.581323 0.000000
0.606434 0.571075 0.000000
0.611255 0.561486 0.000000
0.615187 0.551200 0.000000
0.618958 0.540902 0.000000
0.622568 0.530597 0.000000
0.626788 0.520923 0.000000
0.630865 0.511228 0.000000
0.635582 0.502132 0.000000
0.640171 0.492997 0.000000
0.645430 0.484426 0.000000
0.655119 0.466085 0.000000
0.650576 0.475801 0.000000
0.660844 0.457931 0.000000
0.665639 0.449147 0.000000
0.671154 0.440865 0.000000
0.676565 0.432514 0.000000
0.681872 0.424098 0.000000
0.687075 0.415615 0.000000
0.692173 0.407070 0.000000
0.698032 0.398958 0.000000
0.705545 0.391733 0.000000
0.720028 0.388181 0.000000
2.177891 1.139541 0.000000
2.203130 1.116744 0.000000
2.223081 1.092446 0.000000
2.237351 1.065244 0.000000
2.253103 1.038694 0.000000
1.831089 0.816785 0.000000
1.841070 0.794033 0.000000
1.851691 0.771542 0.000000
1.860181 0.748165 0.000000
0.000000 0.000000 0.000000
0.000000 0.000000 0.000000
0.000000 0.000000 0.000000
0.000000 0.000000 0.000000
0.844793 0.280043 0.000000
0.831136 0.263811 0.000000
0.833473 0.252911 0.000000
0.836628 0.242271 0.000000
0.843502 0.232656 0.000000
0.853169 0.223665 0.000000
0.857891 0.213260 0.000000
0.864432 0.203228 0.000000
0.873785 0.193713 0.000000
0.881077 0.183585 0.000000
0.889233 0.173494 0.000000
0.904318 0.151980 0.000000
0.896291 0.163045 0.000000
0.911048 0.141689 0.000000
0.914691 0.130831 0.000000
0.919196 0.120035 0.000000
0.920593 0.108797 0.000000
0.919865 0.097331 0.000000
0.922977 0.086272 0.000000
0.936919 0.076041 0.000000
0.949750 0.065414 0.000000
0.951477 0.053862 0.000000
0.953063 0.042278 0.000000
0.954508 0.030664 0.000000
0.963844 0.017329 0.000000
0.974983 0.005786 0.000000
