# .PCD v0.7 - Point Cloud Data file format
VERSION 0.7
FIELDS x y z
SIZE 4 4 4
TYPE F F F
COUNT 1 1 1
WIDTH 501
HEIGHT 1
VIEWPOINT 0 0 0 1 0 0 0
POINTS 501
DATA ascii
0.979946 -0.010268 0.000000
0.972765 -0.021401 0.000000
0.966457 -0.032404 0.000000
0.959027 -0.043219 0.000000
0.951476 -0.053867 0.000000
0.944807 -0.064416 0.000000
0.937835 -0.077109 0.000000
0.931830 -0.088253 0.000000
0.924699 -0.099153 0.000000
0.921414 -0.110366 0.000000
0.917001 -0.121382 0.000000
0.911468 -0.132161 0.000000
0.907785 -0.143134 0.000000
0.904956 -0.154204 0.000000
0.902976 -0.165406 0.000000
0.897913 -0.176005 0.000000
0.888811 -0.185687 0.000000
0.873156 -0.205445 0.000000
0.881560 -0.195603 0.000000
0.868414 -0.216525 0.000000
0.871267 -0.229553 0.000000
0.000000 -0.000000 0.000000
0.000000 -0.000000 0.000000
0.000000 -0.000000 0.000000
0.000000 -0.000000 0.000000
0.000000 -0.000000 0.000000
0.000000 -0.000000 0.000000
0.000000 -0.000000 0.000000
0.000000 -0.000000 0.000000
0.000000 -0.000000 0.000000
0.000000 -0.000000 0.000000
0.000000 -0.000000 0.000000
0.000000 -0.000000 0.000000
0.000000 -0.000000 0.000000
1.256000 -0.590768 0.000000
1.243980 -0.604320 0.000000
1.231818 -0.617663 0.000000
1.222183 -0.632175 0.000000
1.207966 -0.644189 0.000000
1.198023 -0.658354 0.000000
1.187915 -0.672371 0.000000
1.180236 -0.687750 0.000000
1.171732 -0.707958 0.000000
1.170514 -0.727173 0.000000
1.171528 -0.748079 0.000000
1.182234 -0.775705 0.000000
0.000000 -0.000000 0.000000
0.949688 -0.657357 0.000000
0.932503 -0.662702 0.000000
0.923412 -0.673617 0.000000
0.915794 -0.685607 0.000000
0.916745 -0.704213 0.000000
0.926013 -0.729754 0.000000
0.940229 -0.760033 0.000000
0.945451 -0.785215 0.000000
0.944842 -0.806125 0.000000
0.943844 -0.827154 0.000000
0.000000 -0.000000 0.000000
0.000000 -0.000000 0.000000
1.513598 -1.436868 0.000000
1.504432 -1.466589 0.000000
1.491914 -1.493490 0.000000
1.477551 -1.518882 0.000000
1.462777 -1.544155 0.000000
1.447590 -1.569302 0.000000
1.431993 -1.594316 0.000000
1.417209 -1.619451 0.000000
1.402227 -1.642973 0.000000
1.386878 -1.666372 0.000000
1.371794 -1.690417 0.000000
1.358187 -1.716697 0.000000
1.343528 -1.742105 0.000000
1.327245 -1.765815 0.000000
1.308217 -1.786159 0.000000
1.284821 -1.800605 0.000000
1.227597 -1.766298 0.000000
1.168063 -1.725887 0.000000
1.117977 -1.696806 0.000000
1.070283 -1.672929 0.000000
1.023955 -1.641871 0.000000
0.981083 -1.614248 0.000000
0.936439 -1.581558 0.000000
0.895680 -1.553257 0.000000
0.856679 -1.525976 0.000000
0.819387 -1.499762 0.000000
0.785631 -1.478195 0.000000
0.751565 -1.454276 0.000000
0.719951 -1.433348 0.000000
0.691114 -1.416381 0.000000
0.661909 -1.397137 0.000000
0.632259 -1.382262 0.000000
0.605774 -1.368958 0.000000
0.580112 -1.356133 0.000000
0.556389 -1.346581 0.000000
0.532623 -1.335723 0.000000
0.509212 -1.324486 0.000000
0.486857 -1.314752 0.000000
0.464822 -1.304671 0.000000
0.445057 -1.299923 0.000000
0.429227 -1.306288 0.000000
0.272134 -0.864164 0.000000
0.257654 -0.855022 0.000000
0.243701 -0.847664 0.000000
0.230828 -0.840894 0.000000
0.220432 -0.842645 0.000000
0.210026 -0.844268 0.000000
0.200533 -0.849656 0.000000
0.190941 -0.854937 0.000000
0.184549 -0.875766 0.000000
0.176517 -0.890677 0.000000
0.000000 -0.000000 0.000000
0.195989 -1.131147 0.000000
0.181240 -1.126514 0.000000
0.166632 -1.121691 0.000000
0.149890 -1.115979 0.000000
0.134068 -1.107918 0.000000
0.118376 -1.098641 0.000000
0.102856 -1.088150 0.000000
0.087550 -1.076446 0.000000
0.072568 -1.064529 0.000000
0.057858 -1.051409 0.000000
0.043505 -1.038089 0.000000
0.029740 -1.032572 0.000000
0.016237 -1.033872 0.000000
0.002706 -1.034997 0.000000
-0.010382 -0.990946 0.000000
-0.022007 -0.984754 0.000000
-0.034718 -0.979385 0.000000
-0.047292 -0.973852 0.000000
-0.059666 -0.967161 0.000000
-0.071873 -0.960314 0.000000
-0.083998 -0.954310 0.000000
-0.095979 -0.948155 0.000000
-0.107814 -0.941849 0.000000
-0.119499 -0.935398 0.000000
-0.131034 -0.928802 0.000000
-0.142875 -0.925031 0.000000
-0.153812 -0.916178 0.000000
-0.165435 -0.912119 0.000000
-0.175390 -0.903127 0.000000
-0.185148 -0.894030 0.000000
-0.193419 -0.878971 0.000000
-0.000000 -0.000000 0.000000
-0.145340 -0.590373 0.000000
-0.148878 -0.574007 0.000000
-0.154402 -0.566330 0.000000
-0.161407 -0.564373 0.000000
-0.170110 -0.568077 0.000000
-0.179525 -0.573560 0.000000
-0.200950 -0.587588 0.000000
-0.190345 -0.582699 0.000000
-0.000000 -0.000000 0.000000
-0.299472 -0.810440 0.000000
-0.309709 -0.807654 0.000000
-0.322509 -0.811244 0.000000
-0.332776 -0.808168 0.000000
-0.343409 -0.805882 0.000000
-0.352825 -0.800712 0.000000
-0.000000 -0.000000 0.000000
-0.249323 -0.530315 0.000000
-0.252292 -0.520032 0.000000
-0.258179 -0.516016 0.000000
-0.268018 -0.516614 0.000000
-0.280908 -0.525649 0.000000
-0.326356 -0.593145 0.000000
-0.341462 -0.603036 0.000000
-0.355347 -0.610053 0.000000
-0.000000 -0.000000 0.000000
-0.000000 -0.000000 0.000000
-0.000000 -0.000000 0.000000
-0.000000 -0.000000 0.000000
-0.390817 -0.585558 0.000000
-0.391158 -0.570841 0.000000
-0.392350 -0.557840 0.000000
-0.395407 -0.545829 0.000000
-0.399157 -0.536875 0.000000
-0.402747 -0.527912 0.000000
-0.404943 -0.517369 0.000000
-0.407567 -0.507632 0.000000
-0.412554 -0.500999 0.000000
-0.416795 -0.493556 0.000000
-0.421570 -0.486842 0.000000
-0.427570 -0.481581 0.000000
-0.434178 -0.476985 0.000000
-0.442102 -0.473761 0.000000
-0.452777 -0.473305 0.000000
-0.462848 -0.470502 0.000000
-0.473613 -0.469659 0.000000
-0.485147 -0.469316 0.000000
-0.497470 -0.469445 0.000000
-0.509871 -0.469340 0.000000
-0.522345 -0.468999 0.000000
-0.537144 -0.470396 0.000000
-0.556619 -0.475394 0.000000
-0.000000 -0.000000 0.000000
-0.000000 -0.000000 0.000000
-0.000000 -0.000000 0.000000
-0.000000 -0.000000 0.000000
-0.000000 -0.000000 0.000000
-0.000000 -0.000000 0.000000
-1.652255 -1.177664 0.000000
-1.670829 -1.159951 0.000000
-1.693358 -1.144759 0.000000
-1.722450 -1.133583 0.000000
-1.750679 -1.121322 0.000000
-1.778868 -1.108533 0.000000
-1.806151 -1.094698 0.000000
-1.833362 -1.080356 0.000000
-1.860493 -1.065506 0.000000
-1.887535 -1.050149 0.000000
-1.917863 -1.032223 0.000000
-1.945395 -1.018751 0.000000
-1.971085 -1.003876 0.000000
-1.997581 -0.988994 0.000000
-2.026696 -0.974939 0.000000
-2.058464 -0.961620 0.000000
-2.091098 -0.948117 0.000000
-1.098460 -0.483101 0.000000
-1.103869 -0.470609 0.000000
-1.117456 -0.461491 0.000000
-1.124476 -0.449527 0.000000
-1.129503 -0.436741 0.000000
-1.133263 -0.418304 0.000000
-1.138360 -0.404229 0.000000
-1.156531 -0.394613 0.000000
-1.174637 -0.384608 0.000000
-1.192671 -0.374214 0.000000
-1.211583 -0.363719 0.000000
-1.231377 -0.353088 0.000000
-1.251092 -0.342021 0.000000
-1.271686 -0.330772 0.000000
-1.292192 -0.319063 0.000000
-1.313574 -0.307124 0.000000
-1.335832 -0.294920 0.000000
-1.357105 -0.281533 0.000000
-1.380122 -0.268514 0.000000
-1.404005 -0.255147 0.000000
-1.427765 -0.241228 0.000000
-1.453369 -0.227068 0.000000
-1.478838 -0.212309 0.000000
-1.505152 -0.197084 0.000000
-1.530319 -0.181121 0.000000
-1.560290 -0.165090 0.000000
-1.592087 -0.148530 0.000000
-1.622711 -0.131126 0.000000
-1.657134 -0.113258 0.000000
-1.689395 -0.093856 0.000000
-1.721464 -0.072748 0.000000
-1.764259 -0.051124 0.000000
-1.803778 -0.028331 0.000000
-1.840994 -0.004493 0.000000
-1.886889 0.020424 0.000000
-1.900449 0.045787 0.000000
-1.909667 0.071365 0.000000
-1.918540 0.097194 0.000000
-1.941033 0.124166 0.000000
-1.972117 0.152444 0.000000
-1.996811 0.181027 0.000000
-3.198848 0.331705 0.000000
-3.179592 0.369587 0.000000
-3.159891 0.407042 0.000000
-3.142723 0.444486 0.000000
-3.129067 0.482176 0.000000
-3.117920 0.520091 0.000000
-3.185056 0.571942 0.000000
-0.000000 0.000000 0.000000
-0.000000 0.000000 0.000000
-0.000000 0.000000 0.000000
-0.000000 0.000000 0.000000
-0.000000 0.000000 0.000000
-0.000000 0.000000 0.000000
-0.000000 0.000000 0.000000
-0.000000 0.000000 0.000000
-5.208766 1.558756 0.000000
-5.197641 1.625867 0.000000
-5.177095 1.690149 0.000000
-5.187942 1.765123 0.000000
-6.289299 2.227174 0.000000
-6.244326 2.298718 0.000000
-6.247121 2.388058 0.000000
-6.667897 2.644065 0.000000
-0.810603 0.345085 0.000000
-0.796198 0.350669 0.000000
-6.634621 2.726486 0.000000
-0.789971 0.359680 0.000000
-0.785453 0.369441 0.000000
-0.783514 0.380456 0.000000
-0.000000 0.000000 0.000000
-0.000000 0.000000 0.000000
-0.000000 0.000000 0.000000
-1.460765 0.801075 0.000000
-1.448985 0.818132 0.000000
-1.437006 0.835019 0.000000
-1.425690 0.852249 0.000000
-0.837468 0.516627 0.000000
-0.811002 0.513688 0.000000
-0.803172 0.522186 0.000000
-0.796918 0.531682 0.000000
-0.791377 0.541667 0.000000
-0.785712 0.551595 0.000000
-0.779921 0.561466 0.000000
-0.774008 0.571276 0.000000
-0.768768 0.581628 0.000000
-0.763392 0.591936 0.000000
-0.757879 0.602199 0.000000
-0.752230 0.612414 0.000000
-0.745792 0.623360 0.000000
-0.741063 0.633601 0.000000
-0.735445 0.643156 0.000000
-0.729706 0.652664 0.000000
-0.723846 0.662124 0.000000
-0.717865 0.671534 0.000000
-0.713210 0.682276 0.000000
-0.708404 0.692997 0.000000
-0.703447 0.703695 0.000000
-0.698339 0.714369 0.000000
-0.693080 0.725016 0.000000
-0.687670 0.735635 0.000000
-0.681718 0.746580 0.000000
-0.676805 0.760433 0.000000
-0.670338 0.772772 0.000000
-0.663666 0.785068 0.000000
-0.656789 0.797319 0.000000
-0.649707 0.809521 0.000000
-0.643036 0.822460 0.000000
-0.636140 0.835359 0.000000
-0.629616 0.849019 0.000000
-0.622260 0.861836 0.000000
-0.615254 0.875421 0.000000
-0.607438 0.888141 0.000000
-0.600108 0.901531 0.000000
-0.591899 0.915290 0.000000
-0.583429 0.928989 0.000000
-0.574699 0.942622 0.000000
-0.566219 0.957047 0.000000
-0.557457 0.971412 0.000000
-0.548412 0.985712 0.000000
-0.539086 0.999941 0.000000
-0.529941 1.014982 0.000000
-0.521844 1.032632 0.000000
-0.512931 1.049345 0.000000
-0.503667 1.066002 0.000000
-0.495070 1.084329 0.000000
-0.486039 1.100443 0.000000
-0.476292 1.115578 0.000000
-0.466626 1.131564 0.000000
-0.456635 1.147480 0.000000
-0.446321 1.163320 0.000000
-0.436378 1.180955 0.000000
-0.426065 1.198521 0.000000
-0.415383 1.216011 0.000000
-0.404644 1.234368 0.000000
-0.393513 1.252644 0.000000
-0.382567 1.272747 0.000000
-0.369778 1.292130 0.000000
-0.358407 1.311924 0.000000
-0.346865 1.332597 0.000000
-0.335116 1.354150 0.000000
-0.322898 1.375611 0.000000
-0.310644 1.398924 0.000000
-0.298080 1.423118 0.000000
-0.284785 1.446227 0.000000
-0.270976 1.469220 0.000000
-0.257162 1.495044 0.000000
-0.242923 1.521732 0.000000
-0.228077 1.548291 0.000000
-0.210835 1.575960 0.000000
-0.194419 1.604262 0.000000
-0.177548 1.634385 0.000000
-0.160152 1.666322 0.000000
-0.141742 1.695084 0.000000
-0.123069 1.729627 0.000000
-0.103677 1.765959 0.000000
-0.083451 1.803070 0.000000
-0.062355 1.840944 0.000000
-0.040353 1.879567 0.000000
-0.017458 1.923921 0.000000
0.006522 1.965989 0.000000
0.033695 2.010718 0.000000
0.062162 2.058061 0.000000
0.091909 2.104995 0.000000
0.122983 2.152489 0.000000
0.155632 2.203511 0.000000
0.189927 2.257023 0.000000
0.000000 0.000000 0.000000
0.000000 0.000000 0.000000
0.000000 0.000000 0.000000
0.000000 0.000000 0.000000
0.000000 0.000000 0.000000
0.493661 2.972283 0.000000
0.548586 3.024653 0.000000
0.592249 3.032712 0.000000
0.633977 3.029373 0.000000
0.674630 3.020580 0.000000
0.000000 0.000000 0.000000
0.000000 0.000000 0.000000
0.000000 0.000000 0.000000
0.000000 0.000000 0.000000
0.000000 0.000000 0.000000
0.000000 0.000000 0.000000
0.000000 0.000000 0.000000
0.000000 0.000000 0.000000
0.000000 0.000000 0.000000
1.654327 4.496319 0.000000
1.707062 4.468000 0.000000
1.759349 4.439067 0.000000
1.810800 4.408600 0.000000
0.000000 0.000000 0.000000
0.000000 0.000000 0.000000
0.000000 0.000000 0.000000
2.014675 4.287220 0.000000
2.065465 4.257426 0.000000
2.117166 4.229718 0.000000
1.176590 2.203552 0.000000
1.216329 2.216152 0.000000
2.168039 4.200492 0.000000
1.248162 2.213317 0.000000
1.277082 2.204850 0.000000
1.302906 2.190853 0.000000
1.329097 2.177407 0.000000
1.354621 2.162800 0.000000
1.380526 2.148736 0.000000
1.406286 2.134361 0.000000
1.431898 2.119678 0.000000
1.457927 2.105510 0.000000
1.515592 2.073066 0.000000
1.483820 2.091022 0.000000
1.543565 2.057327 0.000000
1.571380 2.041210 0.000000
1.599032 2.024721 0.000000
1.626516 2.007860 0.000000
1.655745 1.992935 0.000000
1.684205 1.976831 0.000000
1.712519 1.960329 0.000000
1.740681 1.943427 0.000000
1.768689 1.926127 0.000000
1.797218 1.909160 0.000000
1.826293 1.892500 0.000000
1.858273 1.875213 0.000000
1.887844 1.859717 0.000000
1.916590 1.843085 0.000000
1.945208 1.826031 0.000000
1.974430 1.809229 0.000000
2.005019 1.793321 0.000000
2.035509 1.776937 0.000000
2.066655 1.760728 0.000000
2.097705 1.744023 0.000000
2.128651 1.726825 0.000000
2.158702 1.708513 0.000000
2.189410 1.690337 0.000000
2.223998 1.668003 0.000000
2.256895 1.648773 0.000000
2.289658 1.628978 0.000000
2.321455 1.608049 0.000000
2.354745 1.587695 0.000000
2.392904 1.570049 0.000000
2.430146 1.551154 0.000000
2.467288 1.531570 0.000000
2.497469 1.507162 0.000000
2.521387 1.478695 0.000000
2.539769 1.446894 0.000000
4.166954 2.305025 0.000000
4.116731 2.202746 0.000000
4.081585 2.119307 0.000000
0.000000 0.000000 0.000000
0.000000 0.000000 0.000000
0.000000 0.000000 0.000000
0.000000 0.000000 0.000000
0.000000 0.000000 0.000000
0.000000 0.000000 0.000000
0.000000 0.000000 0.000000
0.000000 0.000000 0.000000
0.000000 0.000000 0.000000
0.000000 0.000000 0.000000
0.000000 0.000000 0.000000
1.504814 0.513453 0.000000
1.522036 0.496595 0.000000
1.538120 0.479070 0.000000
1.551130 0.460349 0.000000
1.561988 0.440820 0.000000
1.577431 0.422376 0.000000
1.596536 0.404577 0.000000
1.170978 0.280046 0.000000
1.157075 0.260333 0.000000
1.145792 0.241664 0.000000
1.136181 0.223733 0.000000
1.127425 0.205497 0.000000
1.117067 0.189339 0.000000
1.106485 0.173468 0.000000
1.097662 0.158175 0.000000
1.087640 0.142997 0.000000
1.073440 0.127620 0.000000
1.060023 0.112722 0.000000
1.051383 0.098644 0.000000
1.043554 0.084879 0.000000
1.036544 0.071391 0.000000
1.029362 0.058091 0.000000
1.021012 0.044935 0.000000
1.011544 0.030375 0.000000
0.999845 0.017627 0.000000
0.990986 0.005189 0.000000
