# .PCD v0.7 - Point Cloud Data file format
VERSION 0.7
FIELDS x y z
SIZE 4 4 4
TYPE F F F
COUNT 1 1 1
WIDTH 501
HEIGHT 1
VIEWPOINT 0 0 0 1 0 0 0
POINTS 501
DATA ascii
1.301940 -0.012505 0.000000
1.295711 -0.027374 0.000000
1.293311 -0.042232 0.000000
1.290740 -0.057039 0.000000
1.285005 -0.071625 0.000000
1.281885 -0.089420 0.000000
1.278685 -0.105134 0.000000
1.275293 -0.120782 0.000000
1.271710 -0.136362 0.000000
1.261979 -0.151159 0.000000
1.258027 -0.166523 0.000000
1.254877 -0.181955 0.000000
1.267343 -0.199827 0.000000
0.000000 -0.000000 0.000000
0.000000 -0.000000 0.000000
0.000000 -0.000000 0.000000
0.000000 -0.000000 0.000000
0.000000 -0.000000 0.000000
0.000000 -0.000000 0.000000
0.000000 -0.000000 0.000000
2.776457 -0.734624 0.000000
2.766469 -0.771386 0.000000
2.756953 -0.808294 0.000000
2.745989 -0.844792 0.000000
2.733590 -0.880833 0.000000
2.721666 -0.917015 0.000000
1.509339 -0.530939 0.000000
1.512491 -0.554700 0.000000
1.518079 -0.579707 0.000000
1.523479 -0.604428 0.000000
1.529745 -0.628963 0.000000
1.542996 -0.656880 0.000000
1.557617 -0.686026 0.000000
2.616549 -1.191343 0.000000
2.531003 -1.190475 0.000000
2.522354 -1.224805 0.000000
2.591026 -1.298070 0.000000
2.579184 -1.332373 0.000000
2.511280 -1.336973 0.000000
0.000000 -0.000000 0.000000
1.388898 -0.784211 0.000000
1.350583 -0.786698 0.000000
1.330298 -0.797438 0.000000
1.319321 -0.813567 0.000000
1.309839 -0.830617 0.000000
2.072509 -1.351067 0.000000
2.081123 -1.394257 0.000000
2.070028 -1.424835 0.000000
2.059309 -1.455930 0.000000
2.048134 -1.486980 0.000000
2.037304 -1.518576 0.000000
2.026798 -1.550740 0.000000
2.014229 -1.581646 0.000000
2.000425 -1.611850 0.000000
1.987522 -1.641902 0.000000
1.920765 -1.626638 0.000000
0.000000 -0.000000 0.000000
0.000000 -0.000000 0.000000
0.000000 -0.000000 0.000000
1.627126 -1.520523 0.000000
1.565094 -1.498790 0.000000
1.501701 -1.473672 0.000000
1.443393 -1.451491 0.000000
1.384465 -1.426675 0.000000
1.329801 -1.404274 0.000000
1.280502 -1.390113 0.000000
1.235108 -1.374631 0.000000
1.198208 -1.367268 0.000000
1.175974 -1.375930 0.000000
0.779813 -0.935637 0.000000
0.752392 -0.925827 0.000000
0.730926 -0.922538 0.000000
0.718215 -0.929942 0.000000
0.710847 -0.944363 0.000000
0.704413 -0.960356 0.000000
0.698854 -0.977961 0.000000
0.826564 -1.224059 0.000000
0.843213 -1.211432 0.000000
0.806908 -1.225148 0.000000
0.781395 -1.216692 0.000000
0.756714 -1.208660 0.000000
0.733366 -1.201931 0.000000
0.710275 -1.194826 0.000000
0.686945 -1.186486 0.000000
0.661447 -1.173412 0.000000
0.636343 -1.159912 0.000000
0.608344 -1.139817 0.000000
0.589185 -1.135210 0.000000
0.573817 -1.137458 0.000000
0.000000 -0.000000 0.000000
0.338411 -0.714954 0.000000
0.325360 -0.710001 0.000000
0.314105 -0.708493 0.000000
0.304908 -0.711412 0.000000
0.295686 -0.714212 0.000000
0.286814 -0.717821 0.000000
0.278616 -0.723186 0.000000
0.270329 -0.728458 0.000000
0.262290 -0.734577 0.000000
0.255440 -0.744392 0.000000
0.228678 -0.694311 0.000000
0.216926 -0.689690 0.000000
0.207042 -0.687501 0.000000
0.198351 -0.689018 0.000000
0.189918 -0.691390 0.000000
0.182976 -0.699463 0.000000
0.177312 -0.713292 0.000000
0.000000 -0.000000 0.000000
0.171792 -0.771095 0.000000
0.162153 -0.772158 0.000000
0.152320 -0.772119 0.000000
0.141242 -0.765072 0.000000
0.000000 -0.000000 0.000000
0.155492 -0.981763 0.000000
0.141440 -0.970750 0.000000
0.126103 -0.947647 0.000000
0.088753 -0.736673 0.000000
0.078544 -0.727774 0.000000
0.068381 -0.716745 0.000000
0.058833 -0.709565 0.000000
0.049614 -0.704255 0.000000
0.040478 -0.697827 0.000000
0.031509 -0.691282 0.000000
0.022709 -0.684623 0.000000
0.014119 -0.679853 0.000000
0.005440 -0.677978 0.000000
-0.003301 -0.674992 0.000000
-0.012019 -0.674893 0.000000
-0.020734 -0.674681 0.000000
-0.029533 -0.676356 0.000000
-0.038492 -0.679911 0.000000
-0.047825 -0.687338 0.000000
-0.057192 -0.692643 0.000000
-0.066703 -0.697819 0.000000
-0.076358 -0.702864 0.000000
-0.086275 -0.708768 0.000000
-0.096758 -0.717505 0.000000
-0.108047 -0.729037 0.000000
-0.120092 -0.746401 0.000000
-0.165428 -0.952745 0.000000
-0.179054 -0.960452 0.000000
-0.191918 -0.963064 0.000000
-0.204045 -0.961590 0.000000
-0.216165 -0.959963 0.000000
-0.228275 -0.958183 0.000000
-0.239887 -0.954311 0.000000
-0.251439 -0.950299 0.000000
-0.262659 -0.945183 0.000000
-0.273792 -0.939936 0.000000
-0.286107 -0.935215 0.000000
-0.298423 -0.934508 0.000000
-0.310765 -0.933639 0.000000
-0.322476 -0.930717 0.000000
-0.333483 -0.925767 0.000000
-0.344418 -0.920687 0.000000
-0.355640 -0.916411 0.000000
-0.367183 -0.912925 0.000000
-0.378309 -0.908371 0.000000
-0.389773 -0.904600 0.000000
-0.401610 -0.901598 0.000000
-0.413431 -0.898441 0.000000
-0.425976 -0.895884 0.000000
-0.439146 -0.892847 0.000000
-0.452763 -0.890509 0.000000
-0.466394 -0.887967 0.000000
-0.481469 -0.887856 0.000000
-0.497110 -0.888373 0.000000
-0.000000 -0.000000 0.000000
-0.000000 -0.000000 0.000000
-0.000000 -0.000000 0.000000
-1.022443 -1.619208 0.000000
-1.034564 -1.591252 0.000000
-1.055579 -1.577389 0.000000
-1.079301 -1.570969 0.000000
-1.103873 -1.564829 0.000000
-1.130218 -1.560749 0.000000
-1.157225 -1.557058 0.000000
-0.636121 -0.834117 0.000000
-0.631619 -0.807268 0.000000
-0.640949 -0.798599 0.000000
-0.650795 -0.790596 0.000000
-0.661832 -0.783999 0.000000
-0.668878 -0.772713 0.000000
-0.672428 -0.757635 0.000000
-0.690238 -0.737341 0.000000
-0.680418 -0.747765 0.000000
-0.703399 -0.734519 0.000000
-0.715886 -0.730778 0.000000
-0.728377 -0.726848 0.000000
-0.741586 -0.723426 0.000000
-0.754811 -0.719798 0.000000
-0.768780 -0.716644 0.000000
-0.782035 -0.712591 0.000000
-0.796042 -0.708994 0.000000
-0.810068 -0.705170 0.000000
-0.824109 -0.701119 0.000000
-0.838161 -0.696840 0.000000
-0.853309 -0.690991 0.000000
-0.868324 -0.685018 0.000000
-0.883324 -0.678774 0.000000
-0.899907 -0.673457 0.000000
-0.916496 -0.667826 0.000000
-0.933902 -0.662459 0.000000
-0.952141 -0.657325 0.000000
-0.970400 -0.651832 0.000000
-0.988672 -0.645979 0.000000
-1.007794 -0.640302 0.000000
-1.028633 -0.635292 0.000000
-1.068675 -0.622979 0.000000
-1.048647 -0.629339 0.000000
-1.089139 -0.615448 0.000000
-1.109592 -0.607479 0.000000
-1.130908 -0.599539 0.000000
-1.153988 -0.592047 0.000000
-1.177069 -0.584042 0.000000
-1.200140 -0.575522 0.000000
-1.224099 -0.566906 0.000000
-1.248954 -0.558156 0.000000
-1.274709 -0.549236 0.000000
-1.301371 -0.540106 0.000000
-1.328943 -0.530728 0.000000
-1.356494 -0.520705 0.000000
-1.383477 -0.511484 0.000000
-1.411379 -0.502010 0.000000
-1.440201 -0.492244 0.000000
-1.470895 -0.482464 0.000000
-1.496794 -0.470497 0.000000
-1.514001 -0.455370 0.000000
-1.525294 -0.438231 0.000000
-1.532536 -0.419825 0.000000
-1.548265 -0.403577 0.000000
-1.566738 -0.387724 0.000000
-1.587973 -0.372159 0.000000
-1.624934 -0.358450 0.000000
-2.891333 -0.600336 0.000000
-2.883826 -0.561596 0.000000
-2.872855 -0.522596 0.000000
-2.859390 -0.483622 0.000000
-2.846391 -0.445216 0.000000
-2.831893 -0.407066 0.000000
-2.818873 -0.369602 0.000000
-2.808341 -0.332879 0.000000
-2.801311 -0.296894 0.000000
-2.797805 -0.261506 0.000000
-2.876595 -0.192065 0.000000
-2.798837 -0.226657 0.000000
-2.962742 -0.158893 0.000000
-0.000000 -0.000000 0.000000
-0.000000 -0.000000 0.000000
-0.000000 -0.000000 0.000000
-0.000000 -0.000000 0.000000
-0.000000 0.000000 0.000000
-0.000000 0.000000 0.000000
-0.000000 0.000000 0.000000
-0.000000 0.000000 0.000000
-0.000000 0.000000 0.000000
-5.058015 0.461220 0.000000
-5.055849 0.391702 0.000000
-0.498328 0.051674 0.000000
-0.484736 0.056344 0.000000
-0.484001 0.062347 0.000000
-0.484181 0.068479 0.000000
-0.485272 0.074779 0.000000
-0.484308 0.080786 0.000000
-0.483270 0.086781 0.000000
-0.484122 0.093141 0.000000
-0.000000 0.000000 0.000000
-0.000000 0.000000 0.000000
-0.000000 0.000000 0.000000
-0.000000 0.000000 0.000000
-0.000000 0.000000 0.000000
-0.000000 0.000000 0.000000
-0.000000 0.000000 0.000000
-1.232978 0.365462 0.000000
-1.226643 0.379478 0.000000
-1.220149 0.393395 0.000000
-1.213498 0.407212 0.000000
-1.202915 0.419609 0.000000
-1.179986 0.427385 0.000000
-0.000000 0.000000 0.000000
-0.551673 0.214757 0.000000
-0.538693 0.217648 0.000000
-0.534071 0.223627 0.000000
-0.530301 0.229923 0.000000
-0.527370 0.236569 0.000000
-0.524356 0.243177 0.000000
-0.521259 0.249747 0.000000
-0.518975 0.256721 0.000000
-0.516599 0.263676 0.000000
-0.514130 0.270613 0.000000
-0.511568 0.277529 0.000000
-0.508913 0.284423 0.000000
-0.503273 0.298230 0.000000
-0.506165 0.291295 0.000000
-0.501354 0.305309 0.000000
-0.499336 0.312385 0.000000
-0.497221 0.319457 0.000000
-0.495842 0.327073 0.000000
-0.494351 0.334702 0.000000
-0.491927 0.341773 0.000000
-0.490219 0.349413 0.000000
-0.487590 0.356472 0.000000
-0.484862 0.363517 0.000000
-0.482035 0.370549 0.000000
-0.475881 0.384813 0.000000
-0.479109 0.377565 0.000000
-0.473385 0.392595 0.000000
-0.471531 0.401023 0.000000
-0.469541 0.409464 0.000000
-0.469649 0.419916 0.000000
-0.465884 0.427055 0.000000
-0.463471 0.435535 0.000000
-0.460199 0.443326 0.000000
-0.457517 0.451805 0.000000
-0.453991 0.459574 0.000000
-0.450343 0.467324 0.000000
-0.449312 0.477969 0.000000
-0.445552 0.484197 0.000000
-0.444194 0.494891 0.000000
-0.441321 0.504119 0.000000
-0.438287 0.513352 0.000000
-0.435091 0.522586 0.000000
-0.431733 0.531819 0.000000
-0.428213 0.541048 0.000000
-0.424530 0.550272 0.000000
-0.421285 0.560286 0.000000
-0.417856 0.570303 0.000000
-0.414824 0.581134 0.000000
-0.411016 0.591157 0.000000
-0.406708 0.601385 0.000000
-0.402860 0.612366 0.000000
-0.399337 0.624188 0.000000
-0.395049 0.635169 0.000000
-0.391063 0.646998 0.000000
-0.386839 0.658826 0.000000
-0.382376 0.670651 0.000000
-0.377674 0.682468 0.000000
-0.374151 0.696916 0.000000
-0.370321 0.711383 0.000000
-0.366633 0.726757 0.000000
-0.362173 0.741253 0.000000
-0.357138 0.755876 0.000000
-0.352735 0.771156 0.000000
-0.348413 0.787356 0.000000
-0.344136 0.804485 0.000000
-0.339105 0.820702 0.000000
-0.333354 0.835987 0.000000
-0.327994 0.853121 0.000000
-0.322259 0.870249 0.000000
-0.315813 0.886421 0.000000
-0.308692 0.901620 0.000000
-0.302490 0.920576 0.000000
-0.296166 0.940469 0.000000
-0.286507 0.965382 0.000000
-0.280320 0.988003 0.000000
-0.273106 1.008681 0.000000
-0.265434 1.029327 0.000000
-0.257541 1.050903 0.000000
-0.249393 1.073409 0.000000
-0.240954 1.096846 0.000000
-0.232393 1.122190 0.000000
-0.223255 1.147483 0.000000
-0.214077 1.175668 0.000000
-0.204922 1.207738 0.000000
-0.194870 1.238766 0.000000
-0.182690 1.270937 0.000000
-0.170567 1.300865 0.000000
-0.159142 1.342601 0.000000
-0.145972 1.377286 0.000000
-0.132430 1.416824 0.000000
-0.118012 1.457229 0.000000
-0.102679 1.498486 0.000000
-0.000000 0.000000 0.000000
-0.000000 0.000000 0.000000
-0.000000 0.000000 0.000000
0.000000 0.000000 0.000000
-0.000000 0.000000 0.000000
-0.000000 0.000000 0.000000
0.000000 0.000000 0.000000
0.000000 0.000000 0.000000
0.000000 0.000000 0.000000
0.000000 0.000000 0.000000
0.000000 0.000000 0.000000
0.000000 0.000000 0.000000
0.295792 2.917042 0.000000
0.341478 2.969430 0.000000
0.381479 2.965565 0.000000
0.421299 2.960170 0.000000
0.457957 2.934480 0.000000
0.000000 0.000000 0.000000
0.000000 0.000000 0.000000
0.000000 0.000000 0.000000
0.000000 0.000000 0.000000
0.000000 0.000000 0.000000
0.000000 0.000000 0.000000
1.145559 4.580936 0.000000
1.202523 4.564245 0.000000
1.258983 4.545883 0.000000
1.315449 4.527783 0.000000
1.371659 4.508982 0.000000
0.000000 0.000000 0.000000
0.000000 0.000000 0.000000
1.540424 4.450977 0.000000
1.595462 4.431546 0.000000
1.650252 4.411436 0.000000
1.705513 4.392513 0.000000
1.760931 4.373825 0.000000
1.817691 4.358129 0.000000
1.873933 4.340779 0.000000
0.000000 0.000000 0.000000
0.000000 0.000000 0.000000
1.078934 2.264059 0.000000
1.125443 2.288204 0.000000
1.162384 2.284258 0.000000
1.193986 2.278065 0.000000
1.224657 2.269682 0.000000
1.254813 2.260015 0.000000
1.284914 2.249950 0.000000
1.314954 2.239488 0.000000
1.345445 2.229483 0.000000
1.375883 2.219069 0.000000
1.406267 2.208243 0.000000
1.437136 2.197844 0.000000
1.469072 2.188681 0.000000
1.500428 2.178242 0.000000
1.533457 2.167379 0.000000
1.565485 2.155493 0.000000
1.598650 2.144748 0.000000
1.633001 2.135100 0.000000
1.667357 2.124928 0.000000
1.701084 2.113453 0.000000
1.734783 2.101465 0.000000
1.768443 2.088966 0.000000
1.803370 2.077464 0.000000
1.838283 2.065416 0.000000
1.872497 2.052081 0.000000
1.944967 2.023945 0.000000
1.908029 2.039675 0.000000
1.980775 2.010028 0.000000
2.017961 1.996937 0.000000
2.057287 1.985309 0.000000
2.095180 1.971636 0.000000
2.136737 1.960703 0.000000
2.177602 1.948367 0.000000
2.217738 1.934654 0.000000
2.257109 1.919590 0.000000
2.295680 1.903202 0.000000
2.338081 1.889289 0.000000
2.382850 1.876463 0.000000
2.428637 1.861537 0.000000
2.470746 1.845663 0.000000
2.511214 1.827851 0.000000
2.544275 1.804113 0.000000
2.570550 1.775289 0.000000
0.000000 0.000000 0.000000
3.263010 2.136064 0.000000
3.264769 2.079885 0.000000
3.263942 2.022939 0.000000
3.287046 1.981305 0.000000
3.308757 1.938905 0.000000
3.332528 1.897757 0.000000
3.367782 1.855281 0.000000
1.714055 0.917142 0.000000
1.726019 0.896595 0.000000
1.743095 0.878591 0.000000
0.000000 0.000000 0.000000
0.000000 0.000000 0.000000
0.000000 0.000000 0.000000
0.000000 0.000000 0.000000
0.000000 0.000000 0.000000
0.000000 0.000000 0.000000
0.000000 0.000000 0.000000
0.000000 0.000000 0.000000
0.000000 0.000000 0.000000
0.000000 0.000000 0.000000
1.786752 0.606867 0.000000
1.810915 0.588052 0.000000
1.848264 0.572840 0.000000
3.366327 0.993955 0.000000
3.358198 0.942681 0.000000
3.353170 0.892834 0.000000
3.347411 0.843295 0.000000
1.439888 0.342233 0.000000
1.433622 0.320452 0.000000
1.427032 0.298902 0.000000
1.422184 0.277475 0.000000
1.415676 0.258038 0.000000
1.407919 0.238637 0.000000
1.399901 0.219469 0.000000
1.389646 0.200251 0.000000
1.374174 0.180670 0.000000
1.370349 0.162919 0.000000
1.367291 0.145397 0.000000
1.359031 0.127509 0.000000
1.350540 0.109848 0.000000
1.344814 0.092623 0.000000
1.340867 0.075671 0.000000
1.331771 0.057215 0.000000
1.323339 0.041819 0.000000
1.316730 0.026662 0.000000
1.314948 0.011704 0.000000
