# .PCD v0.7 - Point Cloud Data file format
VERSION 0.7
FIELDS x y z
SIZE 4 4 4
TYPE F F F
COUNT 1 1 1
WIDTH 502
HEIGHT 1
VIEWPOINT 0 0 0 1 0 0 0
POINTS 502
DATA ascii
1.354977 -0.007812 0.000000
1.366779 -0.024580 0.000000
1.380370 -0.041700 0.000000
1.389749 -0.058984 0.000000
1.396913 -0.076395 0.000000
1.415285 -0.115619 0.000000
1.405853 -0.094124 0.000000
1.423700 -0.134085 0.000000
1.433861 -0.152990 0.000000
1.445757 -0.172403 0.000000
0.000000 -0.000000 0.000000
0.000000 -0.000000 0.000000
1.884871 -0.296184 0.000000
1.880070 -0.319351 0.000000
1.885806 -0.344419 0.000000
1.900041 -0.371405 0.000000
0.000000 -0.000000 0.000000
2.968438 -0.696258 0.000000
2.978906 -0.659333 0.000000
2.912864 -0.721956 0.000000
2.858088 -0.746624 0.000000
2.803160 -0.770028 0.000000
2.754827 -0.794113 0.000000
2.705381 -0.816817 0.000000
2.659620 -0.839610 0.000000
2.616567 -0.862323 0.000000
2.562021 -0.880188 0.000000
2.520627 -0.901536 0.000000
2.475357 -0.920591 0.000000
2.391867 -0.959114 0.000000
2.431878 -0.939372 0.000000
2.349324 -0.976020 0.000000
2.311327 -0.993994 0.000000
2.274163 -1.011585 0.000000
2.238739 -1.029245 0.000000
2.206843 -1.047900 0.000000
2.175730 -1.066363 0.000000
2.143608 -1.083767 0.000000
2.113165 -1.101463 0.000000
2.080853 -1.117628 0.000000
2.048469 -1.133163 0.000000
2.016891 -1.148562 0.000000
1.983621 -1.166125 0.000000
1.957451 -1.182689 0.000000
1.616816 -1.003651 0.000000
1.591964 -1.014985 0.000000
1.571259 -1.028605 0.000000
1.549628 -1.041317 0.000000
1.773243 -1.222835 0.000000
1.767369 -1.250453 0.000000
1.752182 -1.271646 0.000000
1.726313 -1.284892 0.000000
1.694815 -1.293455 0.000000
1.664939 -1.302680 0.000000
1.634676 -1.316676 0.000000
1.592793 -1.315814 0.000000
1.569499 -1.329632 0.000000
1.546863 -1.343733 0.000000
1.521879 -1.355481 0.000000
1.496843 -1.366818 0.000000
1.473220 -1.379110 0.000000
1.448803 -1.390336 0.000000
1.425048 -1.401870 0.000000
1.173090 -1.182970 0.000000
1.158340 -1.197415 0.000000
1.137930 -1.242715 0.000000
1.146846 -1.215313 0.000000
0.000000 -0.000000 0.000000
0.000000 -0.000000 0.000000
0.000000 -0.000000 0.000000
0.000000 -0.000000 0.000000
0.000000 -0.000000 0.000000
0.000000 -0.000000 0.000000
0.000000 -0.000000 0.000000
0.000000 -0.000000 0.000000
1.001388 -1.373762 0.000000
0.972708 -1.369758 0.000000
0.944851 -1.366081 0.000000
0.920831 -1.370355 0.000000
0.902027 -1.381610 0.000000
0.885764 -1.396832 0.000000
0.871352 -1.415270 0.000000
0.856606 -1.433571 0.000000
0.846544 -1.460379 0.000000
0.845718 -1.504605 0.000000
0.944325 -1.733472 0.000000
0.920782 -1.744961 0.000000
0.896646 -1.755240 0.000000
0.873285 -1.766979 0.000000
0.831346 -1.799219 0.000000
0.852359 -1.783820 0.000000
0.808171 -1.807556 0.000000
0.782933 -1.811007 0.000000
0.760432 -1.820569 0.000000
0.737814 -1.829852 0.000000
0.715082 -1.838855 0.000000
0.692944 -1.849447 0.000000
0.670990 -1.860714 0.000000
0.650174 -1.875500 0.000000
0.628779 -1.889105 0.000000
0.606843 -1.901515 0.000000
0.000000 -0.000000 0.000000
0.555067 -1.906855 0.000000
0.532665 -1.914272 0.000000
0.510166 -1.921425 0.000000
0.487327 -1.927344 0.000000
0.463017 -1.927158 0.000000
0.439891 -1.931543 0.000000
0.416726 -1.935650 0.000000
0.394123 -1.942419 0.000000
0.372539 -1.954818 0.000000
0.350542 -1.965993 0.000000
0.328332 -1.976920 0.000000
0.280284 -1.999450 0.000000
0.306064 -1.988585 0.000000
0.256499 -2.010705 0.000000
0.232592 -2.022671 0.000000
0.208428 -2.034351 0.000000
0.184099 -2.046737 0.000000
0.159649 -2.060825 0.000000
0.134814 -2.073622 0.000000
0.109634 -2.085120 0.000000
0.084228 -2.097309 0.000000
0.033264 -1.198538 0.000000
0.018088 -1.177861 0.000000
0.003493 -1.178995 0.000000
-0.011616 -1.187943 0.000000
-0.027347 -1.195687 0.000000
-0.043248 -1.202222 0.000000
-0.059373 -1.209544 0.000000
-0.075945 -1.220640 0.000000
-0.092819 -1.231507 0.000000
-0.109371 -1.235167 0.000000
-0.115002 -1.130164 0.000000
-0.126929 -1.103725 0.000000
-0.138439 -1.079157 0.000000
-0.149748 -1.057449 0.000000
-0.160667 -1.036623 0.000000
-0.171067 -1.015695 0.000000
-0.179557 -0.994927 0.000000
-0.187965 -0.976066 0.000000
-0.195956 -0.957147 0.000000
-0.203530 -0.938177 0.000000
-0.211136 -0.921112 0.000000
-0.218839 -0.905943 0.000000
-0.225972 -0.889753 0.000000
-0.232756 -0.873522 0.000000
-0.239461 -0.858219 0.000000
-0.246120 -0.843840 0.000000
-0.252476 -0.829424 0.000000
-0.256395 -0.815651 0.000000
-0.262742 -0.801009 0.000000
-0.269090 -0.787283 0.000000
-0.275473 -0.774467 0.000000
-0.281581 -0.761614 0.000000
-0.287772 -0.749664 0.000000
-0.294080 -0.738608 0.000000
-0.299778 -0.726588 0.000000
-0.304830 -0.713621 0.000000
-0.310416 -0.702471 0.000000
-0.316188 -0.692204 0.000000
-0.321754 -0.681902 0.000000
-0.327700 -0.671284 0.000000
-0.333652 -0.660512 0.000000
-0.339834 -0.650591 0.000000
-0.345335 -0.639745 0.000000
-0.351090 -0.629744 0.000000
-0.356637 -0.619705 0.000000
-0.362488 -0.610494 0.000000
-0.367632 -0.600386 0.000000
-0.373102 -0.591097 0.000000
-0.378388 -0.581772 0.000000
-0.385159 -0.574906 0.000000
-0.388975 -0.563847 0.000000
-0.395845 -0.556593 0.000000
-0.398680 -0.545922 0.000000
-0.402509 -0.536868 0.000000
-0.406174 -0.527805 0.000000
-0.411535 -0.521090 0.000000
-0.415532 -0.512770 0.000000
-0.419386 -0.504432 0.000000
-0.423095 -0.496079 0.000000
-0.426662 -0.487713 0.000000
-0.428082 -0.477102 0.000000
-0.430658 -0.468006 0.000000
-0.435132 -0.461103 0.000000
-0.438111 -0.452724 0.000000
-0.441652 -0.445054 0.000000
-0.444357 -0.436665 0.000000
-0.448365 -0.429663 0.000000
-0.452267 -0.422629 0.000000
-0.455325 -0.414892 0.000000
-0.459007 -0.407809 0.000000
-0.462584 -0.400700 0.000000
-0.466054 -0.393565 0.000000
-0.469419 -0.386407 0.000000
-0.471897 -0.378600 0.000000
-0.478335 -0.363864 0.000000
-0.475042 -0.371408 0.000000
-0.481200 -0.356717 0.000000
-0.483962 -0.349556 0.000000
-0.487439 -0.342957 0.000000
-0.490001 -0.335760 0.000000
-0.493292 -0.329107 0.000000
-0.495655 -0.321880 0.000000
-0.498760 -0.315179 0.000000
-0.501776 -0.308451 0.000000
-0.504701 -0.301696 0.000000
-0.506672 -0.294414 0.000000
-0.510281 -0.288113 0.000000
-0.512984 -0.281198 0.000000
-0.516285 -0.275090 0.000000
-0.519514 -0.268943 0.000000
-0.522669 -0.262759 0.000000
-0.525751 -0.256537 0.000000
-0.528758 -0.250280 0.000000
-0.531691 -0.243987 0.000000
-0.534549 -0.237659 0.000000
-0.537332 -0.231299 0.000000
-0.540039 -0.224905 0.000000
-0.542671 -0.218480 0.000000
-0.545225 -0.212025 0.000000
-0.549105 -0.204645 0.000000
-0.552540 -0.198163 0.000000
-0.555899 -0.191627 0.000000
-0.560129 -0.185352 0.000000
-0.563336 -0.178699 0.000000
-0.566464 -0.171995 0.000000
-0.569512 -0.165241 0.000000
-0.572480 -0.158438 0.000000
-0.575366 -0.151587 0.000000
-0.579141 -0.144931 0.000000
-0.581865 -0.137974 0.000000
-0.585482 -0.131191 0.000000
-0.588084 -0.123927 0.000000
-0.591537 -0.117018 0.000000
-0.594908 -0.110043 0.000000
-0.598197 -0.103002 0.000000
-0.601402 -0.095897 0.000000
-0.604523 -0.088727 0.000000
-0.607559 -0.081496 0.000000
-0.611500 -0.074323 0.000000
-0.614362 -0.066956 0.000000
-0.619126 -0.059722 0.000000
-0.622808 -0.052297 0.000000
-0.626401 -0.044789 0.000000
-0.629954 -0.036321 0.000000
-0.633352 -0.028648 0.000000
-0.636657 -0.020896 0.000000
-0.639867 -0.013066 0.000000
-0.643979 -0.005169 0.000000
-0.647994 0.002829 0.000000
-0.651908 0.010925 0.000000
-0.655721 0.019119 0.000000
-0.662428 0.027534 0.000000
-0.664033 0.035848 0.000000
-0.670522 0.044538 0.000000
-0.671913 0.053000 0.000000
-0.678121 0.062551 0.000000
-0.679283 0.071158 0.000000
-0.685302 0.080385 0.000000
-0.689211 0.089515 0.000000
-0.693989 0.098895 0.000000
-0.698639 0.108407 0.000000
-0.702173 0.117883 0.000000
-0.706563 0.127642 0.000000
-0.711800 0.137717 0.000000
-0.716894 0.147942 0.000000
-0.720867 0.158099 0.000000
-0.725671 0.168604 0.000000
-0.730136 0.180016 0.000000
-0.735758 0.190419 0.000000
-0.741237 0.200975 0.000000
-0.746570 0.211682 0.000000
-0.751753 0.222539 0.000000
-0.758695 0.234132 0.000000
-0.765469 0.245915 0.000000
-0.773018 0.258200 0.000000
-0.780385 0.270693 0.000000
-0.787566 0.283388 0.000000
-0.794556 0.296285 0.000000
-0.801352 0.309379 0.000000
-0.807330 0.324220 0.000000
-0.815253 0.339193 0.000000
-0.822009 0.354015 0.000000
-0.830347 0.369871 0.000000
-0.839326 0.386404 0.000000
-0.848020 0.403216 0.000000
-0.856424 0.420302 0.000000
-0.865425 0.438109 0.000000
-0.875001 0.456664 0.000000
-0.884247 0.475524 0.000000
-0.894033 0.495165 0.000000
-0.904334 0.515617 0.000000
-0.914657 0.537702 0.000000
-0.925894 0.559861 0.000000
-0.935870 0.581851 0.000000
-0.946284 0.604711 0.000000
-0.957944 0.629015 0.000000
-0.969144 0.653698 0.000000
-0.982342 0.680462 0.000000
-0.997467 0.709391 0.000000
-1.012831 0.739385 0.000000
-1.020397 0.764470 0.000000
-1.021946 0.785588 0.000000
-1.024696 0.808099 0.000000
-0.000000 0.000000 0.000000
-0.000000 0.000000 0.000000
-0.000000 0.000000 0.000000
-0.000000 0.000000 0.000000
-0.000000 0.000000 0.000000
-0.000000 0.000000 0.000000
-1.417690 1.350525 0.000000
-1.428716 1.398131 0.000000
-1.438008 1.445564 0.000000
-1.414278 1.460447 0.000000
-1.393152 1.477866 0.000000
-1.373165 1.496455 0.000000
-1.359195 1.523926 0.000000
-1.353333 1.555742 0.000000
-0.000000 0.000000 0.000000
-0.000000 0.000000 0.000000
-0.000000 0.000000 0.000000
-0.000000 0.000000 0.000000
-0.000000 0.000000 0.000000
-0.000000 0.000000 0.000000
-0.000000 0.000000 0.000000
-1.640415 2.313425 0.000000
-1.611622 2.333574 0.000000
-1.542617 2.358274 0.000000
-1.579792 2.349216 0.000000
-1.506709 2.365978 0.000000
-1.474530 2.379109 0.000000
-1.444838 2.396090 0.000000
-1.414445 2.411838 0.000000
-1.383884 2.427200 0.000000
-1.354127 2.443926 0.000000
-1.324643 2.461167 0.000000
-1.294476 2.477167 0.000000
-1.256879 2.478527 0.000000
-1.641372 3.337193 0.000000
-1.600479 3.356997 0.000000
-1.559937 3.376027 0.000000
-1.518799 3.396924 0.000000
-1.477383 3.417319 0.000000
-1.435695 3.437209 0.000000
-1.393741 3.456590 0.000000
-1.350801 3.473596 0.000000
-1.307655 3.490067 0.000000
-1.266342 3.511647 0.000000
-0.000000 0.000000 0.000000
-0.000000 0.000000 0.000000
-0.000000 0.000000 0.000000
-0.000000 0.000000 0.000000
-0.422313 1.450783 0.000000
-0.406745 1.467681 0.000000
-0.395395 1.501823 0.000000
-0.380565 1.525239 0.000000
-0.363130 1.539760 0.000000
-0.344515 1.550178 0.000000
-0.325488 1.559393 0.000000
-0.306471 1.569355 0.000000
-0.287072 1.578102 0.000000
-0.267831 1.588580 0.000000
-0.248212 1.597836 0.000000
-0.228540 1.607839 0.000000
-0.209216 1.617526 0.000000
-0.189853 1.625954 0.000000
-0.170415 1.635144 0.000000
-0.150688 1.643105 0.000000
-0.130869 1.651824 0.000000
-0.110857 1.660303 0.000000
-0.090763 1.670536 0.000000
-0.070474 1.681524 0.000000
-0.049898 1.691264 0.000000
-0.029073 1.699751 0.000000
-0.008046 1.707981 0.000000
0.036233 1.729621 0.000000
0.013188 1.716949 0.000000
0.057455 1.741052 0.000000
0.078913 1.751223 0.000000
0.100567 1.760129 0.000000
0.122584 1.770762 0.000000
0.145035 1.783111 0.000000
0.167894 1.796170 0.000000
0.191087 1.808935 0.000000
0.214378 1.819414 0.000000
0.238079 1.830583 0.000000
0.261938 1.840454 0.000000
0.286375 1.851990 0.000000
0.312593 1.863970 0.000000
0.338985 1.874597 0.000000
0.366078 1.886815 0.000000
0.394147 1.901582 0.000000
0.422220 1.913983 0.000000
0.450671 1.925975 0.000000
0.480939 1.943374 0.000000
0.510963 1.957408 0.000000
0.542482 1.974846 0.000000
0.573419 1.987952 0.000000
0.605644 2.003458 0.000000
0.671509 2.034021 0.000000
0.638659 2.019416 0.000000
0.705118 2.050130 0.000000
0.739229 2.065715 0.000000
0.774529 2.082640 0.000000
0.811441 2.101802 0.000000
0.847831 2.117580 0.000000
0.886651 2.137393 0.000000
0.928457 2.162077 0.000000
0.967355 2.177823 0.000000
0.997606 2.172939 0.000000
1.024026 2.159507 0.000000
1.362402 2.783462 0.000000
1.406912 2.779177 0.000000
1.447763 2.771662 0.000000
1.489122 2.764438 0.000000
1.534901 2.764475 0.000000
1.591845 2.782888 0.000000
1.706854 2.897657 0.000000
1.770076 2.919285 0.000000
1.793891 2.875287 0.000000
1.818497 2.833683 0.000000
1.840683 2.789417 0.000000
1.861476 2.744223 0.000000
1.880849 2.698134 0.000000
1.899470 2.653146 0.000000
1.920357 2.613289 0.000000
1.936939 2.568532 0.000000
1.949035 2.519025 0.000000
1.974505 2.487631 0.000000
1.996339 2.452116 0.000000
2.014395 2.412605 0.000000
2.031779 2.373026 0.000000
2.050472 2.335644 0.000000
2.068553 2.298163 0.000000
2.086021 2.260596 0.000000
2.103565 2.223676 0.000000
2.123567 2.183708 0.000000
2.138793 2.146267 0.000000
0.000000 0.000000 0.000000
1.001310 0.956871 0.000000
1.020239 0.951387 0.000000
1.039922 0.946255 0.000000
1.060379 0.941446 0.000000
1.081627 0.936933 0.000000
1.105214 0.933976 0.000000
1.135060 0.935670 0.000000
1.174463 0.944291 0.000000
1.194568 0.936659 0.000000
0.967810 0.736206 0.000000
0.977111 0.723816 0.000000
0.985443 0.710723 0.000000
0.991962 0.696387 0.000000
0.997452 0.681435 0.000000
1.002721 0.666458 0.000000
1.009451 0.652543 0.000000
1.015990 0.638565 0.000000
1.022336 0.624526 0.000000
1.028490 0.610429 0.000000
1.035317 0.596777 0.000000
1.041964 0.583050 0.000000
1.048330 0.569433 0.000000
1.055305 0.556399 0.000000
1.062119 0.543279 0.000000
1.068769 0.530076 0.000000
1.076157 0.517225 0.000000
1.088830 0.506805 0.000000
2.595787 1.169316 0.000000
2.615578 1.139457 0.000000
2.631340 1.107735 0.000000
2.647644 1.076172 0.000000
2.664500 1.044742 0.000000
2.243331 0.815619 0.000000
2.246937 0.849046 0.000000
2.237764 0.780586 0.000000
0.000000 0.000000 0.000000
1.191580 0.380969 0.000000
1.194552 0.364755 0.000000
1.198264 0.348808 0.000000
1.208509 0.334695 0.000000
1.213754 0.319102 0.000000
1.220738 0.303912 0.000000
1.227532 0.288593 0.000000
1.235110 0.273365 0.000000
1.242499 0.257988 0.000000
1.249569 0.243118 0.000000
1.259333 0.229086 0.000000
1.263024 0.213851 0.000000
1.266530 0.198560 0.000000
1.269851 0.183215 0.000000
1.282900 0.169125 0.000000
1.292814 0.154387 0.000000
1.294604 0.138582 0.000000
1.297196 0.122850 0.000000
1.307570 0.107732 0.000000
1.317766 0.092378 0.000000
1.325777 0.056957 0.000000
1.320793 0.076388 0.000000
1.334370 0.041001 0.000000
1.345770 0.024900 0.000000
1.352973 0.008501 0.000000
